{
	"asset":{
		"generator":"Khronos glTF Blender I/O v3.5.30",
		"version":"2.0"
	},
	"scene":0,
	"scenes":[
		{
			"extras":{
				"skinify":{
					"connect_mesh":0,
					"connect_parents":0,
					"generate_all":0,
					"thickness":0.800000011920929,
					"finger_thickness":0.25,
					"apply_mod":1,
					"parent_armature":1,
					"sub_level":1
				},
				"camera_settings":{},
				"uuid":"4b9dda3c-b783-43d8-9180-a20d4c855c48",
				"assets reported":{},
				"b_settings":1,
				"b_player":0,
				"s_cubemap_path":"",
				"b_renderer":0,
				"s_cubemap_ext":"jpg",
				"b_export":1,
				"export_path":"/Users/erbvi/Desktop/",
				"s_output":"exporting...",
				"s_project_name":"aframe2-prj"
			},
			"name":"Scene",
			"nodes":[
				0
			]
		}
	],
	"nodes":[
		{
			"extras":{
				"ant_landscape":{}
			},
			"mesh":0,
			"name":"Circle",
			"scale":[
				1.5309664011001587,
				1.5309664011001587,
				1.5309664011001587
			]
		}
	],
	"materials":[
		{
			"doubleSided":true,
			"name":"Material.021",
			"pbrMetallicRoughness":{
				"baseColorFactor":[
					0.7873983979225159,
					0.27650192379951477,
					0.04662991687655449,
					1
				],
				"metallicFactor":0,
				"roughnessFactor":0.5
			}
		}
	],
	"meshes":[
		{
			"name":"Circle.001",
			"primitives":[
				{
					"attributes":{
						"POSITION":0,
						"TEXCOORD_0":1,
						"NORMAL":2,
						"TANGENT":3
					},
					"indices":4,
					"material":0
				}
			]
		}
	],
	"accessors":[
		{
			"bufferView":0,
			"componentType":5126,
			"count":160,
			"max":[
				1.0707144737243652,
				0.18273726105690002,
				1.355204701423645
			],
			"min":[
				-1.319666862487793,
				-0.2516659200191498,
				-1.209187388420105
			],
			"type":"VEC3"
		},
		{
			"bufferView":1,
			"componentType":5126,
			"count":160,
			"type":"VEC2"
		},
		{
			"bufferView":2,
			"componentType":5126,
			"count":160,
			"type":"VEC3"
		},
		{
			"bufferView":3,
			"componentType":5126,
			"count":160,
			"type":"VEC4"
		},
		{
			"bufferView":4,
			"componentType":5123,
			"count":240,
			"type":"SCALAR"
		}
	],
	"bufferViews":[
		{
			"buffer":0,
			"byteLength":1920,
			"byteOffset":0,
			"target":34962
		},
		{
			"buffer":0,
			"byteLength":1280,
			"byteOffset":1920,
			"target":34962
		},
		{
			"buffer":0,
			"byteLength":1920,
			"byteOffset":3200,
			"target":34962
		},
		{
			"buffer":0,
			"byteLength":2560,
			"byteOffset":5120,
			"target":34962
		},
		{
			"buffer":0,
			"byteLength":480,
			"byteOffset":7680,
			"target":34963
		}
	],
	"buffers":[
		{
			"byteLength":8160,
			"uri":"data:application/octet-stream;base64,"
		}
	]
}
