{
	"asset":{
		"generator":"Khronos glTF Blender I/O v3.5.30",
		"version":"2.0"
	},
	"scene":0,
	"scenes":[
		{
			"extras":{
				"skinify":{
					"connect_mesh":0,
					"connect_parents":0,
					"generate_all":0,
					"thickness":0.800000011920929,
					"finger_thickness":0.25,
					"apply_mod":1,
					"parent_armature":1,
					"sub_level":1
				},
				"camera_settings":{},
				"uuid":"4b9dda3c-b783-43d8-9180-a20d4c855c48",
				"assets reported":{},
				"b_settings":1,
				"b_player":0,
				"s_cubemap_path":"",
				"b_renderer":0,
				"s_cubemap_ext":"jpg",
				"b_export":1,
				"export_path":"/Users/erbvi/Desktop/",
				"s_output":"exporting...",
				"s_project_name":"aframe3-prj"
			},
			"name":"Scene",
			"nodes":[
				0
			]
		}
	],
	"nodes":[
		{
			"extras":{
				"ant_landscape":{}
			},
			"mesh":0,
			"name":"Cube.002",
			"scale":[
				0.505327582359314,
				0.505327582359314,
				0.505327582359314
			]
		}
	],
	"animations":[
		{
			"channels":[
				{
					"sampler":0,
					"target":{
						"node":0,
						"path":"translation"
					}
				},
				{
					"sampler":1,
					"target":{
						"node":0,
						"path":"rotation"
					}
				},
				{
					"sampler":2,
					"target":{
						"node":0,
						"path":"scale"
					}
				}
			],
			"name":"Cube.002",
			"samplers":[
				{
					"input":10,
					"interpolation":"LINEAR",
					"output":11
				},
				{
					"input":10,
					"interpolation":"LINEAR",
					"output":12
				},
				{
					"input":10,
					"interpolation":"LINEAR",
					"output":13
				}
			]
		}
	],
	"materials":[
		{
			"doubleSided":true,
			"name":"Material.006",
			"pbrMetallicRoughness":{
				"baseColorFactor":[
					0.0007466314127668738,
					1,
					0.04331017658114433,
					1
				],
				"metallicFactor":0,
				"roughnessFactor":0.5
			}
		},
		{
			"doubleSided":true,
			"name":"Material.007",
			"pbrMetallicRoughness":{
				"baseColorFactor":[
					0.447977751493454,
					0.1977630853652954,
					0.08139188587665558,
					1
				],
				"metallicFactor":0,
				"roughnessFactor":0.5
			}
		}
	],
	"meshes":[
		{
			"name":"Cube.003",
			"primitives":[
				{
					"attributes":{
						"POSITION":0,
						"TEXCOORD_0":1,
						"NORMAL":2,
						"TANGENT":3
					},
					"indices":4,
					"material":0
				},
				{
					"attributes":{
						"POSITION":5,
						"TEXCOORD_0":6,
						"NORMAL":7,
						"TANGENT":8
					},
					"indices":9,
					"material":1
				}
			]
		}
	],
	"accessors":[
		{
			"bufferView":0,
			"componentType":5126,
			"count":46,
			"max":[
				2.9320261478424072,
				9.684523582458496,
				2.9720001220703125
			],
			"min":[
				-2.9726688861846924,
				-6.733654975891113,
				-2.932694911956787
			],
			"type":"VEC3"
		},
		{
			"bufferView":1,
			"componentType":5126,
			"count":46,
			"type":"VEC2"
		},
		{
			"bufferView":2,
			"componentType":5126,
			"count":46,
			"type":"VEC3"
		},
		{
			"bufferView":3,
			"componentType":5126,
			"count":46,
			"type":"VEC4"
		},
		{
			"bufferView":4,
			"componentType":5123,
			"count":78,
			"type":"SCALAR"
		},
		{
			"bufferView":5,
			"componentType":5126,
			"count":20,
			"max":[
				0.9796748757362366,
				9.684523582458496,
				1.0196545124053955
			],
			"min":[
				-1.0203250646591187,
				-6.733654975891113,
				-0.980345606803894
			],
			"type":"VEC3"
		},
		{
			"bufferView":6,
			"componentType":5126,
			"count":20,
			"type":"VEC2"
		},
		{
			"bufferView":7,
			"componentType":5126,
			"count":20,
			"type":"VEC3"
		},
		{
			"bufferView":8,
			"componentType":5126,
			"count":20,
			"type":"VEC4"
		},
		{
			"bufferView":9,
			"componentType":5123,
			"count":30,
			"type":"SCALAR"
		},
		{
			"bufferView":10,
			"componentType":5126,
			"count":20,
			"max":[
				0.8333333333333334
			],
			"min":[
				0.041666666666666664
			],
			"type":"SCALAR"
		},
		{
			"bufferView":11,
			"componentType":5126,
			"count":20,
			"type":"VEC3"
		},
		{
			"bufferView":12,
			"componentType":5126,
			"count":20,
			"type":"VEC4"
		},
		{
			"bufferView":13,
			"componentType":5126,
			"count":20,
			"type":"VEC3"
		}
	],
	"bufferViews":[
		{
			"buffer":0,
			"byteLength":552,
			"byteOffset":0,
			"target":34962
		},
		{
			"buffer":0,
			"byteLength":368,
			"byteOffset":552,
			"target":34962
		},
		{
			"buffer":0,
			"byteLength":552,
			"byteOffset":920,
			"target":34962
		},
		{
			"buffer":0,
			"byteLength":736,
			"byteOffset":1472,
			"target":34962
		},
		{
			"buffer":0,
			"byteLength":156,
			"byteOffset":2208,
			"target":34963
		},
		{
			"buffer":0,
			"byteLength":240,
			"byteOffset":2364,
			"target":34962
		},
		{
			"buffer":0,
			"byteLength":160,
			"byteOffset":2604,
			"target":34962
		},
		{
			"buffer":0,
			"byteLength":240,
			"byteOffset":2764,
			"target":34962
		},
		{
			"buffer":0,
			"byteLength":320,
			"byteOffset":3004,
			"target":34962
		},
		{
			"buffer":0,
			"byteLength":60,
			"byteOffset":3324,
			"target":34963
		},
		{
			"buffer":0,
			"byteLength":80,
			"byteOffset":3384
		},
		{
			"buffer":0,
			"byteLength":240,
			"byteOffset":3464
		},
		{
			"buffer":0,
			"byteLength":320,
			"byteOffset":3704
		},
		{
			"buffer":0,
			"byteLength":240,
			"byteOffset":4024
		}
	],
	"buffers":[
		{
			"byteLength":4264,
			"uri":"data:application/octet-stream;base64,"
		}
	]
}
