{
	"asset":{
		"generator":"Khronos glTF Blender I/O v3.5.30",
		"version":"2.0"
	},
	"scene":0,
	"scenes":[
		{
			"extras":{
				"skinify":{
					"connect_mesh":0,
					"connect_parents":0,
					"generate_all":0,
					"thickness":0.800000011920929,
					"finger_thickness":0.25,
					"apply_mod":1,
					"parent_armature":1,
					"sub_level":1
				},
				"camera_settings":{},
				"uuid":"4b9dda3c-b783-43d8-9180-a20d4c855c48",
				"assets reported":{},
				"b_settings":1,
				"b_player":0,
				"s_cubemap_path":"",
				"b_renderer":0,
				"s_cubemap_ext":"jpg",
				"b_export":1,
				"export_path":"/Users/erbvi/Desktop/",
				"s_output":"exporting...",
				"s_project_name":"aframe14-prj",
				"b_interactive":0
			},
			"name":"Scene",
			"nodes":[
				0
			]
		}
	],
	"nodes":[
		{
			"mesh":0,
			"name":"Cube.005",
			"scale":[
				0.5837260484695435,
				0.5837260484695435,
				0.5837260484695435
			]
		}
	],
	"materials":[
		{
			"doubleSided":true,
			"name":"Material.008",
			"pbrMetallicRoughness":{
				"baseColorFactor":[
					0.008836459368467331,
					0.1679486632347107,
					0.023195305839180946,
					1
				],
				"metallicFactor":0,
				"roughnessFactor":0.5
			}
		},
		{
			"doubleSided":true,
			"name":"Material.011",
			"pbrMetallicRoughness":{
				"baseColorFactor":[
					0.2738303542137146,
					0.08371178060770035,
					0.027613695710897446,
					1
				],
				"metallicFactor":0,
				"roughnessFactor":0.5
			}
		}
	],
	"meshes":[
		{
			"name":"Cube.006",
			"primitives":[
				{
					"attributes":{
						"POSITION":0,
						"TEXCOORD_0":1,
						"NORMAL":2,
						"TANGENT":3
					},
					"indices":4,
					"material":0
				},
				{
					"attributes":{
						"POSITION":5,
						"TEXCOORD_0":6,
						"NORMAL":7,
						"TANGENT":8
					},
					"indices":9,
					"material":1
				}
			]
		}
	],
	"accessors":[
		{
			"bufferView":0,
			"componentType":5126,
			"count":98,
			"max":[
				3.9225640296936035,
				8.451984405517578,
				3.9225659370422363
			],
			"min":[
				-3.9225640296936035,
				-7.46616792678833,
				-3.92256236076355
			],
			"type":"VEC3"
		},
		{
			"bufferView":1,
			"componentType":5126,
			"count":98,
			"type":"VEC2"
		},
		{
			"bufferView":2,
			"componentType":5126,
			"count":98,
			"type":"VEC3"
		},
		{
			"bufferView":3,
			"componentType":5126,
			"count":98,
			"type":"VEC4"
		},
		{
			"bufferView":4,
			"componentType":5123,
			"count":156,
			"type":"SCALAR"
		},
		{
			"bufferView":5,
			"componentType":5126,
			"count":16,
			"max":[
				1,
				-3.506410598754883,
				0.9999974966049194
			],
			"min":[
				-1,
				-7.46616792678833,
				-1.0000025033950806
			],
			"type":"VEC3"
		},
		{
			"bufferView":6,
			"componentType":5126,
			"count":16,
			"type":"VEC2"
		},
		{
			"bufferView":7,
			"componentType":5126,
			"count":16,
			"type":"VEC3"
		},
		{
			"bufferView":8,
			"componentType":5126,
			"count":16,
			"type":"VEC4"
		},
		{
			"bufferView":9,
			"componentType":5123,
			"count":24,
			"type":"SCALAR"
		}
	],
	"bufferViews":[
		{
			"buffer":0,
			"byteLength":1176,
			"byteOffset":0,
			"target":34962
		},
		{
			"buffer":0,
			"byteLength":784,
			"byteOffset":1176,
			"target":34962
		},
		{
			"buffer":0,
			"byteLength":1176,
			"byteOffset":1960,
			"target":34962
		},
		{
			"buffer":0,
			"byteLength":1568,
			"byteOffset":3136,
			"target":34962
		},
		{
			"buffer":0,
			"byteLength":312,
			"byteOffset":4704,
			"target":34963
		},
		{
			"buffer":0,
			"byteLength":192,
			"byteOffset":5016,
			"target":34962
		},
		{
			"buffer":0,
			"byteLength":128,
			"byteOffset":5208,
			"target":34962
		},
		{
			"buffer":0,
			"byteLength":192,
			"byteOffset":5336,
			"target":34962
		},
		{
			"buffer":0,
			"byteLength":256,
			"byteOffset":5528,
			"target":34962
		},
		{
			"buffer":0,
			"byteLength":48,
			"byteOffset":5784,
			"target":34963
		}
	],
	"buffers":[
		{
			"byteLength":5832,
			"uri":"data:application/octet-stream;base64,"
		}
	]
}
