{
	"asset":{
		"generator":"Khronos glTF Blender I/O v3.5.30",
		"version":"2.0"
	},
	"scene":0,
	"scenes":[
		{
			"extras":{
				"skinify":{
					"connect_mesh":0,
					"connect_parents":0,
					"generate_all":0,
					"thickness":0.800000011920929,
					"finger_thickness":0.25,
					"apply_mod":1,
					"parent_armature":1,
					"sub_level":1
				},
				"camera_settings":{},
				"uuid":"4b9dda3c-b783-43d8-9180-a20d4c855c48",
				"assets reported":{},
				"b_settings":1,
				"b_player":0,
				"s_cubemap_path":"",
				"b_renderer":0,
				"s_cubemap_ext":"jpg",
				"b_export":1,
				"export_path":"/Users/erbvi/Desktop/",
				"s_output":"exporting...",
				"s_project_name":"aframe12-prj",
				"b_interactive":0
			},
			"name":"Scene",
			"nodes":[
				0
			]
		}
	],
	"nodes":[
		{
			"extras":{
				"ant_landscape":{},
				"jv_properties":{}
			},
			"mesh":0,
			"name":"Cube",
			"scale":[
				23.923086166381836,
				23.923086166381836,
				23.923086166381836
			]
		}
	],
	"materials":[
		{
			"doubleSided":true,
			"name":"Material",
			"pbrMetallicRoughness":{
				"baseColorFactor":[
					0.3505556285381317,
					0.15087264776229858,
					0.22057998180389404,
					1
				],
				"metallicFactor":0,
				"roughnessFactor":0.4000000059604645
			}
		},
		{
			"doubleSided":true,
			"name":"Material.002",
			"pbrMetallicRoughness":{
				"baseColorFactor":[
					0.3423835337162018,
					0.07181773334741592,
					0.06801292300224304,
					1
				],
				"metallicFactor":0,
				"roughnessFactor":0.5
			}
		},
		{
			"doubleSided":true,
			"name":"Material.003",
			"pbrMetallicRoughness":{
				"baseColorFactor":[
					0.0021738421637564898,
					0.19598807394504547,
					0.007710084784775972,
					1
				],
				"metallicFactor":0,
				"roughnessFactor":0.5
			}
		}
	],
	"meshes":[
		{
			"name":"Cube",
			"primitives":[
				{
					"attributes":{
						"POSITION":0,
						"TEXCOORD_0":1,
						"NORMAL":2
					},
					"indices":3,
					"material":0
				},
				{
					"attributes":{
						"POSITION":4,
						"TEXCOORD_0":5,
						"NORMAL":6
					},
					"indices":7,
					"material":1
				},
				{
					"attributes":{
						"POSITION":8,
						"TEXCOORD_0":9,
						"NORMAL":10
					},
					"indices":11,
					"material":2
				}
			]
		}
	],
	"accessors":[
		{
			"bufferView":0,
			"componentType":5126,
			"count":57,
			"max":[
				1.019688367843628,
				0.03888621926307678,
				1.0102061033248901
			],
			"min":[
				-0.9856902360916138,
				-0.3904702365398407,
				-0.9906491637229919
			],
			"type":"VEC3"
		},
		{
			"bufferView":1,
			"componentType":5126,
			"count":57,
			"type":"VEC2"
		},
		{
			"bufferView":2,
			"componentType":5126,
			"count":57,
			"type":"VEC3"
		},
		{
			"bufferView":3,
			"componentType":5123,
			"count":135,
			"type":"SCALAR"
		},
		{
			"bufferView":4,
			"componentType":5126,
			"count":20,
			"max":[
				0.870761513710022,
				-0.38695600628852844,
				0.8657686710357666
			],
			"min":[
				-0.8433828949928284,
				-0.7779650092124939,
				-0.8485525846481323
			],
			"type":"VEC3"
		},
		{
			"bufferView":5,
			"componentType":5126,
			"count":20,
			"type":"VEC2"
		},
		{
			"bufferView":6,
			"componentType":5126,
			"count":20,
			"type":"VEC3"
		},
		{
			"bufferView":7,
			"componentType":5123,
			"count":30,
			"type":"SCALAR"
		},
		{
			"bufferView":8,
			"componentType":5126,
			"count":921,
			"max":[
				1.019688367843628,
				0.24446359276771545,
				1.0102061033248901
			],
			"min":[
				-1.0184608697891235,
				-0.3904702365398407,
				-1.0266618728637695
			],
			"type":"VEC3"
		},
		{
			"bufferView":9,
			"componentType":5126,
			"count":921,
			"type":"VEC2"
		},
		{
			"bufferView":10,
			"componentType":5126,
			"count":921,
			"type":"VEC3"
		},
		{
			"bufferView":11,
			"componentType":5123,
			"count":1479,
			"type":"SCALAR"
		}
	],
	"bufferViews":[
		{
			"buffer":0,
			"byteLength":684,
			"byteOffset":0,
			"target":34962
		},
		{
			"buffer":0,
			"byteLength":456,
			"byteOffset":684,
			"target":34962
		},
		{
			"buffer":0,
			"byteLength":684,
			"byteOffset":1140,
			"target":34962
		},
		{
			"buffer":0,
			"byteLength":270,
			"byteOffset":1824,
			"target":34963
		},
		{
			"buffer":0,
			"byteLength":240,
			"byteOffset":2096,
			"target":34962
		},
		{
			"buffer":0,
			"byteLength":160,
			"byteOffset":2336,
			"target":34962
		},
		{
			"buffer":0,
			"byteLength":240,
			"byteOffset":2496,
			"target":34962
		},
		{
			"buffer":0,
			"byteLength":60,
			"byteOffset":2736,
			"target":34963
		},
		{
			"buffer":0,
			"byteLength":11052,
			"byteOffset":2796,
			"target":34962
		},
		{
			"buffer":0,
			"byteLength":7368,
			"byteOffset":13848,
			"target":34962
		},
		{
			"buffer":0,
			"byteLength":11052,
			"byteOffset":21216,
			"target":34962
		},
		{
			"buffer":0,
			"byteLength":2958,
			"byteOffset":32268,
			"target":34963
		}
	],
	"buffers":[
		{
			"byteLength":35228,
			"uri":"data:application/octet-stream;base64,"
		}
	]
}
