{
	"asset":{
		"generator":"Khronos glTF Blender I/O v3.5.30",
		"version":"2.0"
	},
	"extensionsUsed":[
		"KHR_materials_specular",
		"KHR_materials_ior"
	],
	"scene":0,
	"scenes":[
		{
			"extras":{
				"b_settings":1,
				"b_renderer":0,
				"b_player":0,
				"b_export":1,
				"export_path":"/Users/erbvi/Desktop/Monsters/",
				"s_output":"exporting..."
			},
			"name":"Scene",
			"nodes":[
				0
			]
		}
	],
	"nodes":[
		{
			"mesh":0,
			"name":"Diego Body",
			"rotation":[
				0,
				1,
				0,
				7.549790836947068e-08
			],
			"scale":[
				0.22834746539592743,
				0.22834746539592743,
				0.22834746539592743
			]
		}
	],
	"materials":[
		{
			"doubleSided":true,
			"name":"Material.105",
			"pbrMetallicRoughness":{
				"baseColorFactor":[
					0.012286492623388767,
					0.012286492623388767,
					0.012286492623388767,
					1
				],
				"roughnessFactor":0.5
			}
		},
		{
			"doubleSided":true,
			"extensions":{
				"KHR_materials_specular":{
					"specularColorFactor":[
						2.371357614441398,
						2.371357614441398,
						2.371357614441398
					]
				},
				"KHR_materials_ior":{
					"ior":1.4500000476837158
				}
			},
			"name":"Material.106",
			"pbrMetallicRoughness":{
				"baseColorFactor":[
					0.023343686014413834,
					0.8000000715255737,
					1,
					1
				],
				"metallicFactor":0.9533678889274597
			}
		},
		{
			"doubleSided":true,
			"name":"Material.104",
			"pbrMetallicRoughness":{
				"baseColorFactor":[
					0.012286492623388767,
					0.012286492623388767,
					0.012286492623388767,
					1
				],
				"roughnessFactor":0.5
			}
		},
		{
			"doubleSided":true,
			"extensions":{
				"KHR_materials_specular":{
					"specularColorFactor":[
						0,
						0,
						0
					]
				},
				"KHR_materials_ior":{
					"ior":1.4500000476837158
				}
			},
			"name":"Material.107",
			"pbrMetallicRoughness":{
				"baseColorFactor":[
					0.8000000715255737,
					0.002079697558656335,
					0,
					1
				],
				"metallicFactor":0,
				"roughnessFactor":0.5
			}
		}
	],
	"meshes":[
		{
			"name":"Sphere.007",
			"primitives":[
				{
					"attributes":{
						"POSITION":0,
						"TEXCOORD_0":1,
						"NORMAL":2,
						"TANGENT":3
					},
					"indices":4,
					"material":0
				},
				{
					"attributes":{
						"POSITION":5,
						"TEXCOORD_0":6,
						"NORMAL":7,
						"TANGENT":8
					},
					"indices":9,
					"material":1
				},
				{
					"attributes":{
						"POSITION":10,
						"TEXCOORD_0":11,
						"NORMAL":12,
						"TANGENT":13
					},
					"indices":4,
					"material":2
				},
				{
					"attributes":{
						"POSITION":14,
						"TEXCOORD_0":15,
						"NORMAL":16,
						"TANGENT":17
					},
					"indices":18,
					"material":3
				}
			]
		}
	],
	"accessors":[
		{
			"bufferView":0,
			"componentType":5126,
			"count":559,
			"max":[
				-0.7414271235466003,
				6.028694152832031,
				-0.5265095233917236
			],
			"min":[
				-2.7414259910583496,
				4.028694152832031,
				-2.5265088081359863
			],
			"type":"VEC3"
		},
		{
			"bufferView":1,
			"componentType":5126,
			"count":559,
			"type":"VEC2"
		},
		{
			"bufferView":2,
			"componentType":5126,
			"count":559,
			"type":"VEC3"
		},
		{
			"bufferView":3,
			"componentType":5126,
			"count":559,
			"type":"VEC4"
		},
		{
			"bufferView":4,
			"componentType":5123,
			"count":2880,
			"type":"SCALAR"
		},
		{
			"bufferView":5,
			"componentType":5126,
			"count":1118,
			"max":[
				2.2252378463745117,
				5.26202917098999,
				-2.1431772708892822
			],
			"min":[
				-1.9472957849502563,
				4.633726596832275,
				-2.725585460662842
			],
			"type":"VEC3"
		},
		{
			"bufferView":6,
			"componentType":5126,
			"count":1118,
			"type":"VEC2"
		},
		{
			"bufferView":7,
			"componentType":5126,
			"count":1118,
			"type":"VEC3"
		},
		{
			"bufferView":8,
			"componentType":5126,
			"count":1118,
			"type":"VEC4"
		},
		{
			"bufferView":9,
			"componentType":5123,
			"count":5760,
			"type":"SCALAR"
		},
		{
			"bufferView":10,
			"componentType":5126,
			"count":559,
			"max":[
				2.758573055267334,
				6.028694152832031,
				-0.5265095829963684
			],
			"min":[
				0.7585746049880981,
				4.028694152832031,
				-2.5265088081359863
			],
			"type":"VEC3"
		},
		{
			"bufferView":11,
			"componentType":5126,
			"count":559,
			"type":"VEC2"
		},
		{
			"bufferView":12,
			"componentType":5126,
			"count":559,
			"type":"VEC3"
		},
		{
			"bufferView":13,
			"componentType":5126,
			"count":559,
			"type":"VEC4"
		},
		{
			"bufferView":14,
			"componentType":5126,
			"count":5677,
			"max":[
				17.685855865478516,
				8.878837585449219,
				9.028675079345703
			],
			"min":[
				-17.898277282714844,
				-11.68194580078125,
				-12.684222221374512
			],
			"type":"VEC3"
		},
		{
			"bufferView":15,
			"componentType":5126,
			"count":5677,
			"type":"VEC2"
		},
		{
			"bufferView":16,
			"componentType":5126,
			"count":5677,
			"type":"VEC3"
		},
		{
			"bufferView":17,
			"componentType":5126,
			"count":5677,
			"type":"VEC4"
		},
		{
			"bufferView":18,
			"componentType":5123,
			"count":8688,
			"type":"SCALAR"
		}
	],
	"bufferViews":[
		{
			"buffer":0,
			"byteLength":6708,
			"byteOffset":0,
			"target":34962
		},
		{
			"buffer":0,
			"byteLength":4472,
			"byteOffset":6708,
			"target":34962
		},
		{
			"buffer":0,
			"byteLength":6708,
			"byteOffset":11180,
			"target":34962
		},
		{
			"buffer":0,
			"byteLength":8944,
			"byteOffset":17888,
			"target":34962
		},
		{
			"buffer":0,
			"byteLength":5760,
			"byteOffset":26832,
			"target":34963
		},
		{
			"buffer":0,
			"byteLength":13416,
			"byteOffset":32592,
			"target":34962
		},
		{
			"buffer":0,
			"byteLength":8944,
			"byteOffset":46008,
			"target":34962
		},
		{
			"buffer":0,
			"byteLength":13416,
			"byteOffset":54952,
			"target":34962
		},
		{
			"buffer":0,
			"byteLength":17888,
			"byteOffset":68368,
			"target":34962
		},
		{
			"buffer":0,
			"byteLength":11520,
			"byteOffset":86256,
			"target":34963
		},
		{
			"buffer":0,
			"byteLength":6708,
			"byteOffset":97776,
			"target":34962
		},
		{
			"buffer":0,
			"byteLength":4472,
			"byteOffset":104484,
			"target":34962
		},
		{
			"buffer":0,
			"byteLength":6708,
			"byteOffset":108956,
			"target":34962
		},
		{
			"buffer":0,
			"byteLength":8944,
			"byteOffset":115664,
			"target":34962
		},
		{
			"buffer":0,
			"byteLength":68124,
			"byteOffset":124608,
			"target":34962
		},
		{
			"buffer":0,
			"byteLength":45416,
			"byteOffset":192732,
			"target":34962
		},
		{
			"buffer":0,
			"byteLength":68124,
			"byteOffset":238148,
			"target":34962
		},
		{
			"buffer":0,
			"byteLength":90832,
			"byteOffset":306272,
			"target":34962
		},
		{
			"buffer":0,
			"byteLength":17376,
			"byteOffset":397104,
			"target":34963
		}
	],
	"buffers":[
		{
			"byteLength":414480,
			"uri":"data:application/octet-stream;base64,"
		}
	]
}
