{
	"asset":{
		"generator":"Khronos glTF Blender I/O v3.5.30",
		"version":"2.0"
	},
	"scene":0,
	"scenes":[
		{
			"extras":{
				"b_settings":1,
				"b_renderer":0,
				"b_player":0,
				"b_export":1,
				"export_path":"/Users/erbvi/Desktop/Monsters/",
				"s_output":"exporting...",
				"b_interactive":1,
				"b_export_single_model":0,
				"s_project_name":"aframe-prj4"
			},
			"name":"Scene",
			"nodes":[
				0
			]
		}
	],
	"nodes":[
		{
			"mesh":0,
			"name":"Diego Hair",
			"rotation":[
				-0.700310230255127,
				-0.028143515810370445,
				-0.23234441876411438,
				0.6743809580802917
			],
			"scale":[
				0.3805790841579437,
				0.3805792033672333,
				0.3805791139602661
			]
		}
	],
	"materials":[
		{
			"doubleSided":true,
			"name":"Material.104",
			"pbrMetallicRoughness":{
				"baseColorFactor":[
					0.012286492623388767,
					0.012286492623388767,
					0.012286492623388767,
					1
				],
				"roughnessFactor":0.5
			}
		}
	],
	"meshes":[
		{
			"name":"BezierCurve.001",
			"primitives":[
				{
					"attributes":{
						"POSITION":0,
						"TEXCOORD_0":1,
						"NORMAL":2,
						"TANGENT":3
					},
					"indices":4,
					"material":0
				}
			]
		}
	],
	"accessors":[
		{
			"bufferView":0,
			"componentType":5126,
			"count":45443,
			"max":[
				2.2649593353271484,
				7.9391255378723145,
				1.1324974298477173
			],
			"min":[
				-2.7532196044921875,
				-1.6588764190673828,
				-7.5153093338012695
			],
			"type":"VEC3"
		},
		{
			"bufferView":1,
			"componentType":5126,
			"count":45443,
			"type":"VEC2"
		},
		{
			"bufferView":2,
			"componentType":5126,
			"count":45443,
			"type":"VEC3"
		},
		{
			"bufferView":3,
			"componentType":5126,
			"count":45443,
			"type":"VEC4"
		},
		{
			"bufferView":4,
			"componentType":5123,
			"count":233928,
			"type":"SCALAR"
		}
	],
	"bufferViews":[
		{
			"buffer":0,
			"byteLength":545316,
			"byteOffset":0,
			"target":34962
		},
		{
			"buffer":0,
			"byteLength":363544,
			"byteOffset":545316,
			"target":34962
		},
		{
			"buffer":0,
			"byteLength":545316,
			"byteOffset":908860,
			"target":34962
		},
		{
			"buffer":0,
			"byteLength":727088,
			"byteOffset":1454176,
			"target":34962
		},
		{
			"buffer":0,
			"byteLength":467856,
			"byteOffset":2181264,
			"target":34963
		}
	],
	"buffers":[
		{
			"byteLength":2649120,
			"uri":"data:application/octet-stream;base64,"
		}
	]
}
