{
	"asset":{
		"generator":"Khronos glTF Blender I/O v3.5.30",
		"version":"2.0"
	},
	"scene":0,
	"scenes":[
		{
			"extras":{
				"b_settings":1,
				"b_renderer":0,
				"b_player":0,
				"b_export":1,
				"export_path":"/Users/erbvi/Desktop/Monsters/",
				"s_output":"exporting...",
				"s_project_name":"aframe-prj7"
			},
			"name":"Scene",
			"nodes":[
				0
			]
		}
	],
	"nodes":[
		{
			"mesh":0,
			"name":"Diego Teeth",
			"rotation":[
				0.06136294826865196,
				-0.9867762923240662,
				-0.1378115713596344,
				0.05928928405046463
			],
			"scale":[
				0.0494752898812294,
				0.0494752861559391,
				0.0494752898812294
			]
		}
	],
	"meshes":[
		{
			"name":"Cone.001",
			"primitives":[
				{
					"attributes":{
						"POSITION":0,
						"TEXCOORD_0":1,
						"NORMAL":2
					},
					"indices":3
				}
			]
		}
	],
	"accessors":[
		{
			"bufferView":0,
			"componentType":5126,
			"count":1746,
			"max":[
				5.917972564697266,
				3.73237943649292,
				1.4361923933029175
			],
			"min":[
				-5.488333702087402,
				-3.518570899963379,
				-1.544426441192627
			],
			"type":"VEC3"
		},
		{
			"bufferView":1,
			"componentType":5126,
			"count":1746,
			"type":"VEC2"
		},
		{
			"bufferView":2,
			"componentType":5126,
			"count":1746,
			"type":"VEC3"
		},
		{
			"bufferView":3,
			"componentType":5123,
			"count":2592,
			"type":"SCALAR"
		}
	],
	"bufferViews":[
		{
			"buffer":0,
			"byteLength":20952,
			"byteOffset":0,
			"target":34962
		},
		{
			"buffer":0,
			"byteLength":13968,
			"byteOffset":20952,
			"target":34962
		},
		{
			"buffer":0,
			"byteLength":20952,
			"byteOffset":34920,
			"target":34962
		},
		{
			"buffer":0,
			"byteLength":5184,
			"byteOffset":55872,
			"target":34963
		}
	],
	"buffers":[
		{
			"byteLength":61056,
			"uri":"data:application/octet-stream;base64,"
		}
	]
}
