{
	"asset":{
		"generator":"Khronos glTF Blender I/O v3.5.30",
		"version":"2.0"
	},
	"scene":0,
	"scenes":[
		{
			"extras":{
				"skinify":{
					"connect_mesh":0,
					"connect_parents":0,
					"generate_all":0,
					"thickness":0.800000011920929,
					"finger_thickness":0.25,
					"apply_mod":1,
					"parent_armature":1,
					"sub_level":1
				},
				"camera_settings":{},
				"uuid":"4b9dda3c-b783-43d8-9180-a20d4c855c48",
				"assets reported":{},
				"b_settings":1,
				"b_player":0,
				"s_cubemap_path":"",
				"b_renderer":0,
				"s_cubemap_ext":"jpg",
				"b_export":1,
				"export_path":"/Users/zellj/Downloads/",
				"s_output":"exporting...",
				"s_project_name":"aframe18-prj",
				"b_interactive":0
			},
			"name":"Scene",
			"nodes":[
				0
			]
		}
	],
	"nodes":[
		{
			"mesh":0,
			"name":"Drachi",
			"rotation":[
				0.6216630935668945,
				0.33694958686828613,
				-0.33694955706596375,
				0.6216630935668945
			],
			"scale":[
				0.24988916516304016,
				0.24988916516304016,
				0.19922643899917603
			]
		}
	],
	"materials":[
		{
			"doubleSided":true,
			"name":"Material.004",
			"pbrMetallicRoughness":{
				"metallicFactor":0,
				"roughnessFactor":0.5
			}
		}
	],
	"meshes":[
		{
			"name":"Cube.001",
			"primitives":[
				{
					"attributes":{
						"POSITION":0,
						"TEXCOORD_0":1,
						"NORMAL":2,
						"TANGENT":3
					},
					"indices":4,
					"material":0
				}
			]
		}
	],
	"accessors":[
		{
			"bufferView":0,
			"componentType":5126,
			"count":13443,
			"max":[
				10.509546279907227,
				10.507793426513672,
				14.409749984741211
			],
			"min":[
				-7.012448310852051,
				-11.81899642944336,
				-15.998008728027344
			],
			"type":"VEC3"
		},
		{
			"bufferView":1,
			"componentType":5126,
			"count":13443,
			"type":"VEC2"
		},
		{
			"bufferView":2,
			"componentType":5126,
			"count":13443,
			"type":"VEC3"
		},
		{
			"bufferView":3,
			"componentType":5126,
			"count":13443,
			"type":"VEC4"
		},
		{
			"bufferView":4,
			"componentType":5123,
			"count":65592,
			"type":"SCALAR"
		}
	],
	"bufferViews":[
		{
			"buffer":0,
			"byteLength":161316,
			"byteOffset":0,
			"target":34962
		},
		{
			"buffer":0,
			"byteLength":107544,
			"byteOffset":161316,
			"target":34962
		},
		{
			"buffer":0,
			"byteLength":161316,
			"byteOffset":268860,
			"target":34962
		},
		{
			"buffer":0,
			"byteLength":215088,
			"byteOffset":430176,
			"target":34962
		},
		{
			"buffer":0,
			"byteLength":131184,
			"byteOffset":645264,
			"target":34963
		}
	],
	"buffers":[
		{
			"byteLength":776448,
			"uri":"data:application/octet-stream;base64,"
		}
	]
}
