{
	"asset":{
		"generator":"Khronos glTF Blender I/O v3.5.30",
		"version":"2.0"
	},
	"scene":0,
	"scenes":[
		{
			"extras":{
				"skinify":{
					"connect_mesh":0,
					"connect_parents":0,
					"generate_all":0,
					"thickness":0.800000011920929,
					"finger_thickness":0.25,
					"apply_mod":1,
					"parent_armature":1,
					"sub_level":1
				},
				"camera_settings":{},
				"uuid":"4b9dda3c-b783-43d8-9180-a20d4c855c48",
				"assets reported":{},
				"b_settings":1,
				"b_player":0,
				"s_cubemap_path":"",
				"b_renderer":0,
				"s_cubemap_ext":"jpg",
				"b_export":1,
				"export_path":"/Users/erbvi/Desktop/",
				"s_output":"exporting...",
				"s_project_name":"aframe5-prj",
				"b_interactive":0
			},
			"name":"Scene",
			"nodes":[
				0
			]
		}
	],
	"nodes":[
		{
			"extras":{
				"ant_landscape":{}
			},
			"mesh":0,
			"name":"Icosphere.005",
			"rotation":[
				-0.06417635083198547,
				-0.21731513738632202,
				-0.006887792609632015,
				0.9739651083946228
			],
			"scale":[
				2.3362326622009277,
				2.3362324237823486,
				2.3362326622009277
			]
		}
	],
	"animations":[
		{
			"channels":[
				{
					"sampler":0,
					"target":{
						"node":0,
						"path":"translation"
					}
				},
				{
					"sampler":1,
					"target":{
						"node":0,
						"path":"rotation"
					}
				},
				{
					"sampler":2,
					"target":{
						"node":0,
						"path":"scale"
					}
				}
			],
			"name":"Icosphere.005",
			"samplers":[
				{
					"input":20,
					"interpolation":"LINEAR",
					"output":21
				},
				{
					"input":20,
					"interpolation":"LINEAR",
					"output":22
				},
				{
					"input":20,
					"interpolation":"LINEAR",
					"output":23
				}
			]
		}
	],
	"materials":[
		{
			"doubleSided":true,
			"name":"Material.016",
			"pbrMetallicRoughness":{
				"baseColorFactor":[
					0.1247718334197998,
					0.5028864741325378,
					0.2874409258365631,
					1
				],
				"metallicFactor":0,
				"roughnessFactor":0.5
			}
		},
		{
			"doubleSided":true,
			"name":"Material.014",
			"pbrMetallicRoughness":{
				"baseColorFactor":[
					0.005808123853057623,
					0.3185388147830963,
					0.005453613121062517,
					1
				],
				"metallicFactor":0,
				"roughnessFactor":0.5
			}
		},
		{
			"doubleSided":true,
			"name":"Material.017",
			"pbrMetallicRoughness":{
				"baseColorFactor":[
					0.125,
					0.503000020980835,
					0.28700000047683716,
					1
				],
				"metallicFactor":0,
				"roughnessFactor":0.5
			}
		},
		{
			"doubleSided":true,
			"name":"Material.019",
			"pbrMetallicRoughness":{
				"baseColorFactor":[
					0.32637467980384827,
					0.06772968173027039,
					0.013932183384895325,
					1
				],
				"metallicFactor":0,
				"roughnessFactor":0.5
			}
		}
	],
	"meshes":[
		{
			"name":"Icosphere.010",
			"primitives":[
				{
					"attributes":{
						"POSITION":0,
						"TEXCOORD_0":1,
						"NORMAL":2,
						"TANGENT":3
					},
					"indices":4,
					"material":0
				},
				{
					"attributes":{
						"POSITION":5,
						"TEXCOORD_0":6,
						"NORMAL":7,
						"TANGENT":8
					},
					"indices":9,
					"material":1
				},
				{
					"attributes":{
						"POSITION":10,
						"TEXCOORD_0":11,
						"NORMAL":12,
						"TANGENT":13
					},
					"indices":14,
					"material":2
				},
				{
					"attributes":{
						"POSITION":15,
						"TEXCOORD_0":16,
						"NORMAL":17,
						"TANGENT":18
					},
					"indices":19,
					"material":3
				}
			]
		}
	],
	"accessors":[
		{
			"bufferView":0,
			"componentType":5126,
			"count":484,
			"max":[
				2.2314300537109375,
				1.022700309753418,
				1.2097443342208862
			],
			"min":[
				-1.9081907272338867,
				-1.502156376838684,
				-0.7902555465698242
			],
			"type":"VEC3"
		},
		{
			"bufferView":1,
			"componentType":5126,
			"count":484,
			"type":"VEC2"
		},
		{
			"bufferView":2,
			"componentType":5126,
			"count":484,
			"type":"VEC3"
		},
		{
			"bufferView":3,
			"componentType":5126,
			"count":484,
			"type":"VEC4"
		},
		{
			"bufferView":4,
			"componentType":5123,
			"count":486,
			"type":"SCALAR"
		},
		{
			"bufferView":5,
			"componentType":5126,
			"count":496,
			"max":[
				1.267356514930725,
				0.9278213381767273,
				2.301288604736328
			],
			"min":[
				-1.1803436279296875,
				-2.3053410053253174,
				-2.227729320526123
			],
			"type":"VEC3"
		},
		{
			"bufferView":6,
			"componentType":5126,
			"count":496,
			"type":"VEC2"
		},
		{
			"bufferView":7,
			"componentType":5126,
			"count":496,
			"type":"VEC3"
		},
		{
			"bufferView":8,
			"componentType":5126,
			"count":496,
			"type":"VEC4"
		},
		{
			"bufferView":9,
			"componentType":5123,
			"count":504,
			"type":"SCALAR"
		},
		{
			"bufferView":10,
			"componentType":5126,
			"count":240,
			"max":[
				1.2174334526062012,
				2.234822988510132,
				1.2867786884307861
			],
			"min":[
				-1.3673925399780273,
				-0.4830201268196106,
				-1.4310641288757324
			],
			"type":"VEC3"
		},
		{
			"bufferView":11,
			"componentType":5126,
			"count":240,
			"type":"VEC2"
		},
		{
			"bufferView":12,
			"componentType":5126,
			"count":240,
			"type":"VEC3"
		},
		{
			"bufferView":13,
			"componentType":5126,
			"count":240,
			"type":"VEC4"
		},
		{
			"bufferView":14,
			"componentType":5123,
			"count":240,
			"type":"SCALAR"
		},
		{
			"bufferView":15,
			"componentType":5126,
			"count":70,
			"max":[
				0.7546423673629761,
				-0.4281371831893921,
				0.5555091500282288
			],
			"min":[
				-0.808692455291748,
				-2.3053410053253174,
				-0.8077839016914368
			],
			"type":"VEC3"
		},
		{
			"bufferView":16,
			"componentType":5126,
			"count":70,
			"type":"VEC2"
		},
		{
			"bufferView":17,
			"componentType":5126,
			"count":70,
			"type":"VEC3"
		},
		{
			"bufferView":18,
			"componentType":5126,
			"count":70,
			"type":"VEC4"
		},
		{
			"bufferView":19,
			"componentType":5123,
			"count":102,
			"type":"SCALAR"
		},
		{
			"bufferView":20,
			"componentType":5126,
			"count":20,
			"max":[
				0.8333333333333334
			],
			"min":[
				0.041666666666666664
			],
			"type":"SCALAR"
		},
		{
			"bufferView":21,
			"componentType":5126,
			"count":20,
			"type":"VEC3"
		},
		{
			"bufferView":22,
			"componentType":5126,
			"count":20,
			"type":"VEC4"
		},
		{
			"bufferView":23,
			"componentType":5126,
			"count":20,
			"type":"VEC3"
		}
	],
	"bufferViews":[
		{
			"buffer":0,
			"byteLength":5808,
			"byteOffset":0,
			"target":34962
		},
		{
			"buffer":0,
			"byteLength":3872,
			"byteOffset":5808,
			"target":34962
		},
		{
			"buffer":0,
			"byteLength":5808,
			"byteOffset":9680,
			"target":34962
		},
		{
			"buffer":0,
			"byteLength":7744,
			"byteOffset":15488,
			"target":34962
		},
		{
			"buffer":0,
			"byteLength":972,
			"byteOffset":23232,
			"target":34963
		},
		{
			"buffer":0,
			"byteLength":5952,
			"byteOffset":24204,
			"target":34962
		},
		{
			"buffer":0,
			"byteLength":3968,
			"byteOffset":30156,
			"target":34962
		},
		{
			"buffer":0,
			"byteLength":5952,
			"byteOffset":34124,
			"target":34962
		},
		{
			"buffer":0,
			"byteLength":7936,
			"byteOffset":40076,
			"target":34962
		},
		{
			"buffer":0,
			"byteLength":1008,
			"byteOffset":48012,
			"target":34963
		},
		{
			"buffer":0,
			"byteLength":2880,
			"byteOffset":49020,
			"target":34962
		},
		{
			"buffer":0,
			"byteLength":1920,
			"byteOffset":51900,
			"target":34962
		},
		{
			"buffer":0,
			"byteLength":2880,
			"byteOffset":53820,
			"target":34962
		},
		{
			"buffer":0,
			"byteLength":3840,
			"byteOffset":56700,
			"target":34962
		},
		{
			"buffer":0,
			"byteLength":480,
			"byteOffset":60540,
			"target":34963
		},
		{
			"buffer":0,
			"byteLength":840,
			"byteOffset":61020,
			"target":34962
		},
		{
			"buffer":0,
			"byteLength":560,
			"byteOffset":61860,
			"target":34962
		},
		{
			"buffer":0,
			"byteLength":840,
			"byteOffset":62420,
			"target":34962
		},
		{
			"buffer":0,
			"byteLength":1120,
			"byteOffset":63260,
			"target":34962
		},
		{
			"buffer":0,
			"byteLength":204,
			"byteOffset":64380,
			"target":34963
		},
		{
			"buffer":0,
			"byteLength":80,
			"byteOffset":64584
		},
		{
			"buffer":0,
			"byteLength":240,
			"byteOffset":64664
		},
		{
			"buffer":0,
			"byteLength":320,
			"byteOffset":64904
		},
		{
			"buffer":0,
			"byteLength":240,
			"byteOffset":65224
		}
	],
	"buffers":[
		{
			"byteLength":65464,
			"uri":"data:application/octet-stream;base64,"
		}
	]
}
