{
	"asset":{
		"generator":"Khronos glTF Blender I/O v3.5.30",
		"version":"2.0"
	},
	"extensionsUsed":[
		"KHR_materials_sheen"
	],
	"scene":0,
	"scenes":[
		{
			"extras":{
				"b_settings":1,
				"b_renderer":0,
				"b_player":0,
				"b_export":1,
				"export_path":"/Users/erbvi/Desktop/Monsters/",
				"s_output":"exporting...",
				"s_project_name":"aframe-prj7"
			},
			"name":"Scene",
			"nodes":[
				0
			]
		}
	],
	"nodes":[
		{
			"mesh":0,
			"name":"max Suzanne",
			"scale":[
				1.5874881744384766,
				1.5874881744384766,
				1.5874881744384766
			]
		}
	],
	"materials":[
		{
			"doubleSided":true,
			"extensions":{
				"KHR_materials_sheen":{
					"sheenColorFactor":[
						1,
						1,
						1
					],
					"sheenColorTexture":{
						"index":0
					},
					"sheenRoughnessFactor":1
				}
			},
			"name":"Material.025",
			"pbrMetallicRoughness":{}
		}
	],
	"meshes":[
		{
			"name":"Suzanne.001",
			"primitives":[
				{
					"attributes":{
						"POSITION":0,
						"TEXCOORD_0":1,
						"NORMAL":2,
						"TANGENT":3
					},
					"indices":4,
					"material":0
				}
			]
		}
	],
	"textures":[
		{
			"sampler":0,
			"source":0
		}
	],
	"images":[
		{
			"bufferView":5,
			"mimeType":"image/png",
			"name":"max_suzanne"
		}
	],
	"accessors":[
		{
			"bufferView":0,
			"componentType":5126,
			"count":849,
			"max":[
				1.5890047550201416,
				0.6160151958465576,
				0.5520825982093811
			],
			"min":[
				-1.5890047550201416,
				-0.4182240068912506,
				-0.9899404644966125
			],
			"type":"VEC3"
		},
		{
			"bufferView":1,
			"componentType":5126,
			"count":849,
			"type":"VEC2"
		},
		{
			"bufferView":2,
			"componentType":5126,
			"count":849,
			"type":"VEC3"
		},
		{
			"bufferView":3,
			"componentType":5126,
			"count":849,
			"type":"VEC4"
		},
		{
			"bufferView":4,
			"componentType":5123,
			"count":2391,
			"type":"SCALAR"
		}
	],
	"bufferViews":[
		{
			"buffer":0,
			"byteLength":10188,
			"byteOffset":0,
			"target":34962
		},
		{
			"buffer":0,
			"byteLength":6792,
			"byteOffset":10188,
			"target":34962
		},
		{
			"buffer":0,
			"byteLength":10188,
			"byteOffset":16980,
			"target":34962
		},
		{
			"buffer":0,
			"byteLength":13584,
			"byteOffset":27168,
			"target":34962
		},
		{
			"buffer":0,
			"byteLength":4782,
			"byteOffset":40752,
			"target":34963
		},
		{
			"buffer":0,
			"byteLength":50321,
			"byteOffset":45536
		}
	],
	"samplers":[
		{
			"magFilter":9729,
			"minFilter":9987
		}
	],
	"buffers":[
		{
			"byteLength":95860,
			"uri":"data:application/octet-stream;base64,"
		}
	]
}
