{
	"asset":{
		"generator":"Khronos glTF Blender I/O v3.5.30",
		"version":"2.0"
	},
	"scene":0,
	"scenes":[
		{
			"extras":{
				"skinify":{
					"connect_mesh":0,
					"connect_parents":0,
					"generate_all":0,
					"thickness":0.800000011920929,
					"finger_thickness":0.25,
					"apply_mod":1,
					"parent_armature":1,
					"sub_level":1
				},
				"camera_settings":{},
				"uuid":"4b9dda3c-b783-43d8-9180-a20d4c855c48",
				"assets reported":{},
				"b_settings":0,
				"b_player":0,
				"s_cubemap_path":"",
				"b_renderer":0,
				"s_cubemap_ext":"jpg",
				"b_export":1,
				"export_path":"/Users/erbvi/Downloads/",
				"s_output":"exporting...",
				"s_project_name":"aframe20-prj",
				"b_interactive":0
			},
			"name":"Scene",
			"nodes":[
				0
			]
		}
	],
	"nodes":[
		{
			"mesh":0,
			"name":"Monster Ramon",
			"rotation":[
				0.06761930882930756,
				-0.9673179984092712,
				0.01087914314121008,
				0.2441421002149582
			],
			"scale":[
				0.1392277628183365,
				0.4381788372993469,
				0.1392277628183365
			]
		}
	],
	"materials":[
		{
			"doubleSided":true,
			"name":"Material.105",
			"pbrMetallicRoughness":{
				"baseColorFactor":[
					0.006739022675901651,
					0.0001622487761778757,
					0,
					1
				],
				"metallicFactor":0,
				"roughnessFactor":0
			}
		},
		{
			"doubleSided":true,
			"name":"Material.106",
			"pbrMetallicRoughness":{
				"baseColorFactor":[
					0.006739022675901651,
					0.0001622646232135594,
					0,
					1
				],
				"metallicFactor":0,
				"roughnessFactor":0
			}
		},
		{
			"doubleSided":true,
			"name":"material",
			"pbrMetallicRoughness":{
				"metallicFactor":0
			}
		},
		{
			"doubleSided":true,
			"name":"Material.107",
			"pbrMetallicRoughness":{
				"baseColorFactor":[
					0.8000000715255737,
					0.7820908427238464,
					0.7297753691673279,
					1
				],
				"metallicFactor":0,
				"roughnessFactor":0.5
			}
		},
		{
			"doubleSided":true,
			"name":"Material.108",
			"pbrMetallicRoughness":{
				"baseColorFactor":[
					0.800000011920929,
					0.800000011920929,
					0.800000011920929,
					1
				],
				"metallicFactor":0,
				"roughnessFactor":0.5
			}
		}
	],
	"meshes":[
		{
			"name":"Sphere.009",
			"primitives":[
				{
					"attributes":{
						"POSITION":0,
						"TEXCOORD_0":1,
						"NORMAL":2,
						"TANGENT":3
					},
					"indices":4,
					"material":0
				},
				{
					"attributes":{
						"POSITION":5,
						"TEXCOORD_0":6,
						"NORMAL":7,
						"TANGENT":8
					},
					"indices":9,
					"material":1
				},
				{
					"attributes":{
						"POSITION":10,
						"TEXCOORD_0":11,
						"NORMAL":12,
						"TANGENT":13
					},
					"indices":14,
					"material":2
				},
				{
					"attributes":{
						"POSITION":15,
						"TEXCOORD_0":16,
						"NORMAL":17,
						"TANGENT":18
					},
					"indices":19,
					"material":3
				},
				{
					"attributes":{
						"POSITION":20,
						"TEXCOORD_0":21,
						"NORMAL":22,
						"TANGENT":23
					},
					"indices":24,
					"material":4
				}
			]
		}
	],
	"accessors":[
		{
			"bufferView":0,
			"componentType":5126,
			"count":559,
			"max":[
				-4.48798942565918,
				5.839801788330078,
				7.31785774230957
			],
			"min":[
				-6.487987995147705,
				3.839801788330078,
				5.3178582191467285
			],
			"type":"VEC3"
		},
		{
			"bufferView":1,
			"componentType":5126,
			"count":559,
			"type":"VEC2"
		},
		{
			"bufferView":2,
			"componentType":5126,
			"count":559,
			"type":"VEC3"
		},
		{
			"bufferView":3,
			"componentType":5126,
			"count":559,
			"type":"VEC4"
		},
		{
			"bufferView":4,
			"componentType":5123,
			"count":2880,
			"type":"SCALAR"
		},
		{
			"bufferView":5,
			"componentType":5126,
			"count":2062,
			"max":[
				3.360840320587158,
				6.170086860656738,
				6.963593006134033
			],
			"min":[
				0.052642300724983215,
				4.2224884033203125,
				4.980663299560547
			],
			"type":"VEC3"
		},
		{
			"bufferView":6,
			"componentType":5126,
			"count":2062,
			"type":"VEC2"
		},
		{
			"bufferView":7,
			"componentType":5126,
			"count":2062,
			"type":"VEC3"
		},
		{
			"bufferView":8,
			"componentType":5126,
			"count":2062,
			"type":"VEC4"
		},
		{
			"bufferView":9,
			"componentType":5123,
			"count":12360,
			"type":"SCALAR"
		},
		{
			"bufferView":10,
			"componentType":5126,
			"count":12646,
			"max":[
				25.501094818115234,
				6.941070556640625,
				7.223214626312256
			],
			"min":[
				-23.447179794311523,
				-9.920665740966797,
				-8.809261322021484
			],
			"type":"VEC3"
		},
		{
			"bufferView":11,
			"componentType":5126,
			"count":12646,
			"type":"VEC2"
		},
		{
			"bufferView":12,
			"componentType":5126,
			"count":12646,
			"type":"VEC3"
		},
		{
			"bufferView":13,
			"componentType":5126,
			"count":12646,
			"type":"VEC4"
		},
		{
			"bufferView":14,
			"componentType":5123,
			"count":75864,
			"type":"SCALAR"
		},
		{
			"bufferView":15,
			"componentType":5126,
			"count":336,
			"max":[
				0.26111266016960144,
				3.8223719596862793,
				5.164997100830078
			],
			"min":[
				-2.835465431213379,
				3.115622043609619,
				4.356465816497803
			],
			"type":"VEC3"
		},
		{
			"bufferView":16,
			"componentType":5126,
			"count":336,
			"type":"VEC2"
		},
		{
			"bufferView":17,
			"componentType":5126,
			"count":336,
			"type":"VEC3"
		},
		{
			"bufferView":18,
			"componentType":5126,
			"count":336,
			"type":"VEC4"
		},
		{
			"bufferView":19,
			"componentType":5123,
			"count":336,
			"type":"SCALAR"
		},
		{
			"bufferView":20,
			"componentType":5126,
			"count":294,
			"max":[
				0.25486132502555847,
				3.715604305267334,
				5.170114040374756
			],
			"min":[
				-3.286891222000122,
				3.1338698863983154,
				4.324481010437012
			],
			"type":"VEC3"
		},
		{
			"bufferView":21,
			"componentType":5126,
			"count":294,
			"type":"VEC2"
		},
		{
			"bufferView":22,
			"componentType":5126,
			"count":294,
			"type":"VEC3"
		},
		{
			"bufferView":23,
			"componentType":5126,
			"count":294,
			"type":"VEC4"
		},
		{
			"bufferView":24,
			"componentType":5123,
			"count":294,
			"type":"SCALAR"
		}
	],
	"bufferViews":[
		{
			"buffer":0,
			"byteLength":6708,
			"byteOffset":0,
			"target":34962
		},
		{
			"buffer":0,
			"byteLength":4472,
			"byteOffset":6708,
			"target":34962
		},
		{
			"buffer":0,
			"byteLength":6708,
			"byteOffset":11180,
			"target":34962
		},
		{
			"buffer":0,
			"byteLength":8944,
			"byteOffset":17888,
			"target":34962
		},
		{
			"buffer":0,
			"byteLength":5760,
			"byteOffset":26832,
			"target":34963
		},
		{
			"buffer":0,
			"byteLength":24744,
			"byteOffset":32592,
			"target":34962
		},
		{
			"buffer":0,
			"byteLength":16496,
			"byteOffset":57336,
			"target":34962
		},
		{
			"buffer":0,
			"byteLength":24744,
			"byteOffset":73832,
			"target":34962
		},
		{
			"buffer":0,
			"byteLength":32992,
			"byteOffset":98576,
			"target":34962
		},
		{
			"buffer":0,
			"byteLength":24720,
			"byteOffset":131568,
			"target":34963
		},
		{
			"buffer":0,
			"byteLength":151752,
			"byteOffset":156288,
			"target":34962
		},
		{
			"buffer":0,
			"byteLength":101168,
			"byteOffset":308040,
			"target":34962
		},
		{
			"buffer":0,
			"byteLength":151752,
			"byteOffset":409208,
			"target":34962
		},
		{
			"buffer":0,
			"byteLength":202336,
			"byteOffset":560960,
			"target":34962
		},
		{
			"buffer":0,
			"byteLength":151728,
			"byteOffset":763296,
			"target":34963
		},
		{
			"buffer":0,
			"byteLength":4032,
			"byteOffset":915024,
			"target":34962
		},
		{
			"buffer":0,
			"byteLength":2688,
			"byteOffset":919056,
			"target":34962
		},
		{
			"buffer":0,
			"byteLength":4032,
			"byteOffset":921744,
			"target":34962
		},
		{
			"buffer":0,
			"byteLength":5376,
			"byteOffset":925776,
			"target":34962
		},
		{
			"buffer":0,
			"byteLength":672,
			"byteOffset":931152,
			"target":34963
		},
		{
			"buffer":0,
			"byteLength":3528,
			"byteOffset":931824,
			"target":34962
		},
		{
			"buffer":0,
			"byteLength":2352,
			"byteOffset":935352,
			"target":34962
		},
		{
			"buffer":0,
			"byteLength":3528,
			"byteOffset":937704,
			"target":34962
		},
		{
			"buffer":0,
			"byteLength":4704,
			"byteOffset":941232,
			"target":34962
		},
		{
			"buffer":0,
			"byteLength":588,
			"byteOffset":945936,
			"target":34963
		}
	],
	"buffers":[
		{
			"byteLength":946524,
			"uri":"data:application/octet-stream;base64,"
		}
	]
}
