{
	"asset":{
		"generator":"Khronos glTF Blender I/O v3.5.30",
		"version":"2.0"
	},
	"scene":0,
	"scenes":[
		{
			"extras":{
				"skinify":{
					"connect_mesh":0,
					"connect_parents":0,
					"generate_all":0,
					"thickness":0.800000011920929,
					"finger_thickness":0.25,
					"apply_mod":1,
					"parent_armature":1,
					"sub_level":1
				},
				"camera_settings":{},
				"uuid":"4b9dda3c-b783-43d8-9180-a20d4c855c48",
				"assets reported":{},
				"b_settings":1,
				"b_player":0,
				"s_cubemap_path":"",
				"b_renderer":0,
				"s_cubemap_ext":"jpg",
				"b_export":1,
				"export_path":"/Users/zellj/Downloads/",
				"s_output":"exporting...",
				"s_project_name":"aframe18-prj",
				"b_interactive":0
			},
			"name":"Scene",
			"nodes":[
				0
			]
		}
	],
	"nodes":[
		{
			"mesh":0,
			"name":"Monster Pano",
			"scale":[
				0.00692477822303772,
				0.00692477822303772,
				0.00692477822303772
			]
		}
	],
	"materials":[
		{
			"doubleSided":true,
			"name":"Material.109",
			"pbrMetallicRoughness":{
				"metallicFactor":0,
				"roughnessFactor":0.5
			}
		},
		{
			"doubleSided":true,
			"name":"Material.110",
			"pbrMetallicRoughness":{
				"baseColorFactor":[
					0,
					0.013751450926065445,
					0.04691708832979202,
					1
				],
				"metallicFactor":0,
				"roughnessFactor":0.5
			}
		},
		{
			"doubleSided":true,
			"name":"Material.111",
			"pbrMetallicRoughness":{
				"baseColorFactor":[
					0.15060029923915863,
					0.010700984857976437,
					0.8000000715255737,
					1
				],
				"metallicFactor":0,
				"roughnessFactor":0.5
			}
		},
		{
			"doubleSided":true,
			"name":"Material.112",
			"pbrMetallicRoughness":{
				"baseColorFactor":[
					0,
					0,
					0,
					1
				],
				"metallicFactor":0,
				"roughnessFactor":0.5
			}
		},
		{
			"doubleSided":true,
			"name":"Material.113",
			"pbrMetallicRoughness":{
				"baseColorFactor":[
					0,
					0,
					0,
					1
				],
				"metallicFactor":0,
				"roughnessFactor":0.5
			}
		},
		{
			"doubleSided":true,
			"name":"Material.115",
			"pbrMetallicRoughness":{
				"baseColorFactor":[
					0.03966487571597099,
					0.014641464687883854,
					0.0030021851416677237,
					1
				],
				"metallicFactor":0,
				"roughnessFactor":0.5
			}
		}
	],
	"meshes":[
		{
			"name":"Sphere.010",
			"primitives":[
				{
					"attributes":{
						"POSITION":0,
						"TEXCOORD_0":1,
						"NORMAL":2
					},
					"indices":3,
					"material":0
				},
				{
					"attributes":{
						"POSITION":4,
						"TEXCOORD_0":5,
						"NORMAL":6
					},
					"indices":7,
					"material":1
				},
				{
					"attributes":{
						"POSITION":8,
						"TEXCOORD_0":9,
						"NORMAL":10
					},
					"indices":11,
					"material":2
				},
				{
					"attributes":{
						"POSITION":12,
						"TEXCOORD_0":13,
						"NORMAL":14
					},
					"indices":15,
					"material":3
				},
				{
					"attributes":{
						"POSITION":16,
						"TEXCOORD_0":17,
						"NORMAL":18
					},
					"indices":19,
					"material":4
				},
				{
					"attributes":{
						"POSITION":20,
						"TEXCOORD_0":21,
						"NORMAL":22
					},
					"indices":23,
					"material":5
				}
			]
		}
	],
	"accessors":[
		{
			"bufferView":0,
			"componentType":5126,
			"count":5590,
			"max":[
				-27.02521324157715,
				393.2839660644531,
				-71.7402572631836
			],
			"min":[
				-58.15618896484375,
				339.0058288574219,
				-98.36225891113281
			],
			"type":"VEC3"
		},
		{
			"bufferView":1,
			"componentType":5126,
			"count":5590,
			"type":"VEC2"
		},
		{
			"bufferView":2,
			"componentType":5126,
			"count":5590,
			"type":"VEC3"
		},
		{
			"bufferView":3,
			"componentType":5123,
			"count":28800,
			"type":"SCALAR"
		},
		{
			"bufferView":4,
			"componentType":5126,
			"count":8239,
			"max":[
				165.50360107421875,
				506.7591857910156,
				102.31605529785156
			],
			"min":[
				-120.11495208740234,
				-796.1610717773438,
				-38.01918029785156
			],
			"type":"VEC3"
		},
		{
			"bufferView":5,
			"componentType":5126,
			"count":8239,
			"type":"VEC2"
		},
		{
			"bufferView":6,
			"componentType":5126,
			"count":8239,
			"type":"VEC3"
		},
		{
			"bufferView":7,
			"componentType":5123,
			"count":49440,
			"type":"SCALAR"
		},
		{
			"bufferView":8,
			"componentType":5126,
			"count":1118,
			"max":[
				58.57345199584961,
				431.5612487792969,
				7.605986595153809
			],
			"min":[
				-13.184831619262695,
				350.2463684082031,
				-30.797266006469727
			],
			"type":"VEC3"
		},
		{
			"bufferView":9,
			"componentType":5126,
			"count":1118,
			"type":"VEC2"
		},
		{
			"bufferView":10,
			"componentType":5126,
			"count":1118,
			"type":"VEC3"
		},
		{
			"bufferView":11,
			"componentType":5123,
			"count":5760,
			"type":"SCALAR"
		},
		{
			"bufferView":12,
			"componentType":5126,
			"count":130,
			"max":[
				130.77720642089844,
				456.5382995605469,
				119.25914001464844
			],
			"min":[
				-81.02171325683594,
				455.3878479003906,
				-92.53975677490234
			],
			"type":"VEC3"
		},
		{
			"bufferView":13,
			"componentType":5126,
			"count":130,
			"type":"VEC2"
		},
		{
			"bufferView":14,
			"componentType":5126,
			"count":130,
			"type":"VEC3"
		},
		{
			"bufferView":15,
			"componentType":5123,
			"count":372,
			"type":"SCALAR"
		},
		{
			"bufferView":16,
			"componentType":5126,
			"count":229,
			"max":[
				84.4913330078125,
				577.7371826171875,
				75.52597045898438
			],
			"min":[
				-36.57460403442383,
				456.67120361328125,
				-45.53997039794922
			],
			"type":"VEC3"
		},
		{
			"bufferView":17,
			"componentType":5126,
			"count":229,
			"type":"VEC2"
		},
		{
			"bufferView":18,
			"componentType":5126,
			"count":229,
			"type":"VEC3"
		},
		{
			"bufferView":19,
			"componentType":5123,
			"count":948,
			"type":"SCALAR"
		},
		{
			"bufferView":20,
			"componentType":5126,
			"count":1250,
			"max":[
				11.504331588745117,
				333.5788269042969,
				5.644972801208496
			],
			"min":[
				-45.739566802978516,
				294.8415222167969,
				-93.34312438964844
			],
			"type":"VEC3"
		},
		{
			"bufferView":21,
			"componentType":5126,
			"count":1250,
			"type":"VEC2"
		},
		{
			"bufferView":22,
			"componentType":5126,
			"count":1250,
			"type":"VEC3"
		},
		{
			"bufferView":23,
			"componentType":5123,
			"count":7488,
			"type":"SCALAR"
		}
	],
	"bufferViews":[
		{
			"buffer":0,
			"byteLength":67080,
			"byteOffset":0,
			"target":34962
		},
		{
			"buffer":0,
			"byteLength":44720,
			"byteOffset":67080,
			"target":34962
		},
		{
			"buffer":0,
			"byteLength":67080,
			"byteOffset":111800,
			"target":34962
		},
		{
			"buffer":0,
			"byteLength":57600,
			"byteOffset":178880,
			"target":34963
		},
		{
			"buffer":0,
			"byteLength":98868,
			"byteOffset":236480,
			"target":34962
		},
		{
			"buffer":0,
			"byteLength":65912,
			"byteOffset":335348,
			"target":34962
		},
		{
			"buffer":0,
			"byteLength":98868,
			"byteOffset":401260,
			"target":34962
		},
		{
			"buffer":0,
			"byteLength":98880,
			"byteOffset":500128,
			"target":34963
		},
		{
			"buffer":0,
			"byteLength":13416,
			"byteOffset":599008,
			"target":34962
		},
		{
			"buffer":0,
			"byteLength":8944,
			"byteOffset":612424,
			"target":34962
		},
		{
			"buffer":0,
			"byteLength":13416,
			"byteOffset":621368,
			"target":34962
		},
		{
			"buffer":0,
			"byteLength":11520,
			"byteOffset":634784,
			"target":34963
		},
		{
			"buffer":0,
			"byteLength":1560,
			"byteOffset":646304,
			"target":34962
		},
		{
			"buffer":0,
			"byteLength":1040,
			"byteOffset":647864,
			"target":34962
		},
		{
			"buffer":0,
			"byteLength":1560,
			"byteOffset":648904,
			"target":34962
		},
		{
			"buffer":0,
			"byteLength":744,
			"byteOffset":650464,
			"target":34963
		},
		{
			"buffer":0,
			"byteLength":2748,
			"byteOffset":651208,
			"target":34962
		},
		{
			"buffer":0,
			"byteLength":1832,
			"byteOffset":653956,
			"target":34962
		},
		{
			"buffer":0,
			"byteLength":2748,
			"byteOffset":655788,
			"target":34962
		},
		{
			"buffer":0,
			"byteLength":1896,
			"byteOffset":658536,
			"target":34963
		},
		{
			"buffer":0,
			"byteLength":15000,
			"byteOffset":660432,
			"target":34962
		},
		{
			"buffer":0,
			"byteLength":10000,
			"byteOffset":675432,
			"target":34962
		},
		{
			"buffer":0,
			"byteLength":15000,
			"byteOffset":685432,
			"target":34962
		},
		{
			"buffer":0,
			"byteLength":14976,
			"byteOffset":700432,
			"target":34963
		}
	],
	"buffers":[
		{
			"byteLength":715408,
			"uri":"data:application/octet-stream;base64,"
		}
	]
}
