{
	"asset":{
		"generator":"Khronos glTF Blender I/O v3.5.30",
		"version":"2.0"
	},
	"scene":0,
	"scenes":[
		{
			"extras":{
				"skinify":{
					"connect_mesh":0,
					"connect_parents":0,
					"generate_all":0,
					"thickness":0.800000011920929,
					"finger_thickness":0.25,
					"apply_mod":1,
					"parent_armature":1,
					"sub_level":1
				},
				"camera_settings":{},
				"uuid":"4b9dda3c-b783-43d8-9180-a20d4c855c48",
				"assets reported":{},
				"b_settings":1,
				"b_player":0,
				"s_cubemap_path":"",
				"b_renderer":0,
				"s_cubemap_ext":"jpg",
				"b_export":1,
				"export_path":"/Users/zellj/Downloads/",
				"s_output":"exporting...",
				"s_project_name":"aframe18-prj",
				"b_interactive":0
			},
			"name":"Scene",
			"nodes":[
				0
			]
		}
	],
	"nodes":[
		{
			"mesh":0,
			"name":"Monster Isabel"
		}
	],
	"materials":[
		{
			"doubleSided":true,
			"name":"Material.118",
			"pbrMetallicRoughness":{
				"baseColorTexture":{
					"index":0
				},
				"metallicFactor":0,
				"roughnessFactor":0.5
			}
		},
		{
			"doubleSided":true,
			"name":"Material.119",
			"pbrMetallicRoughness":{
				"baseColorFactor":[
					0.800000011920929,
					0.800000011920929,
					0.800000011920929,
					1
				],
				"metallicFactor":0,
				"roughnessFactor":0.5
			}
		}
	],
	"meshes":[
		{
			"name":"Plane.003",
			"primitives":[
				{
					"attributes":{
						"COLOR_0":0,
						"POSITION":1,
						"TEXCOORD_0":2,
						"NORMAL":3
					},
					"indices":4,
					"material":0
				},
				{
					"attributes":{
						"COLOR_0":5,
						"POSITION":6,
						"TEXCOORD_0":7,
						"NORMAL":8
					},
					"indices":9,
					"material":1
				}
			]
		}
	],
	"textures":[
		{
			"sampler":0,
			"source":0
		}
	],
	"images":[
		{
			"bufferView":5,
			"mimeType":"image/png",
			"name":"Untitled"
		}
	],
	"accessors":[
		{
			"bufferView":0,
			"componentType":5126,
			"count":9213,
			"type":"VEC4"
		},
		{
			"bufferView":1,
			"componentType":5126,
			"count":9213,
			"max":[
				1.7352641820907593,
				2.4825174808502197,
				1.0590771436691284
			],
			"min":[
				-1.383010745048523,
				-2.9425978660583496,
				-1.245339274406433
			],
			"type":"VEC3"
		},
		{
			"bufferView":2,
			"componentType":5126,
			"count":9213,
			"type":"VEC2"
		},
		{
			"bufferView":3,
			"componentType":5126,
			"count":9213,
			"type":"VEC3"
		},
		{
			"bufferView":4,
			"componentType":5123,
			"count":39168,
			"type":"SCALAR"
		},
		{
			"bufferView":6,
			"componentType":5126,
			"count":2600,
			"type":"VEC4"
		},
		{
			"bufferView":7,
			"componentType":5126,
			"count":2600,
			"max":[
				1.965351939201355,
				1.0479880571365356,
				0.11125604808330536
			],
			"min":[
				-2.0127203464508057,
				-1.1791406869888306,
				-0.9906340837478638
			],
			"type":"VEC3"
		},
		{
			"bufferView":8,
			"componentType":5126,
			"count":2600,
			"type":"VEC2"
		},
		{
			"bufferView":9,
			"componentType":5126,
			"count":2600,
			"type":"VEC3"
		},
		{
			"bufferView":10,
			"componentType":5123,
			"count":14778,
			"type":"SCALAR"
		}
	],
	"bufferViews":[
		{
			"buffer":0,
			"byteLength":147408,
			"byteOffset":0,
			"target":34962
		},
		{
			"buffer":0,
			"byteLength":110556,
			"byteOffset":147408,
			"target":34962
		},
		{
			"buffer":0,
			"byteLength":73704,
			"byteOffset":257964,
			"target":34962
		},
		{
			"buffer":0,
			"byteLength":110556,
			"byteOffset":331668,
			"target":34962
		},
		{
			"buffer":0,
			"byteLength":78336,
			"byteOffset":442224,
			"target":34963
		},
		{
			"buffer":0,
			"byteLength":20566,
			"byteOffset":520560
		},
		{
			"buffer":0,
			"byteLength":41600,
			"byteOffset":541128,
			"target":34962
		},
		{
			"buffer":0,
			"byteLength":31200,
			"byteOffset":582728,
			"target":34962
		},
		{
			"buffer":0,
			"byteLength":20800,
			"byteOffset":613928,
			"target":34962
		},
		{
			"buffer":0,
			"byteLength":31200,
			"byteOffset":634728,
			"target":34962
		},
		{
			"buffer":0,
			"byteLength":29556,
			"byteOffset":665928,
			"target":34963
		}
	],
	"samplers":[
		{
			"magFilter":9729,
			"minFilter":9987
		}
	],
	"buffers":[
		{
			"byteLength":695484,
			"uri":"data:application/octet-stream;base64,"
		}
	]
}
