{
	"asset":{
		"generator":"Khronos glTF Blender I/O v3.5.30",
		"version":"2.0"
	},
	"scene":0,
	"scenes":[
		{
			"extras":{
				"b_settings":1,
				"b_renderer":0,
				"b_player":0,
				"b_export":1,
				"export_path":"/Users/erbvi/Desktop/Monsters/",
				"s_output":"exporting..."
			},
			"name":"Scene",
			"nodes":[
				0
			]
		}
	],
	"nodes":[
		{
			"mesh":0,
			"name":"Monster Noemi 2",
			"scale":[
				1.6846668720245361,
				1.6846668720245361,
				1.6846668720245361
			]
		}
	],
	"materials":[
		{
			"doubleSided":true,
			"name":"Material.013",
			"pbrMetallicRoughness":{
				"baseColorTexture":{
					"index":0
				},
				"metallicFactor":0,
				"roughnessFactor":0.5
			}
		}
	],
	"meshes":[
		{
			"name":"Plane",
			"primitives":[
				{
					"attributes":{
						"COLOR_0":0,
						"POSITION":1,
						"TEXCOORD_0":2,
						"NORMAL":3,
						"TANGENT":4
					},
					"indices":5,
					"material":0
				}
			]
		}
	],
	"textures":[
		{
			"sampler":0,
			"source":0
		}
	],
	"images":[
		{
			"bufferView":6,
			"mimeType":"image/png",
			"name":"HPColor"
		}
	],
	"accessors":[
		{
			"bufferView":0,
			"componentType":5126,
			"count":16479,
			"type":"VEC4"
		},
		{
			"bufferView":1,
			"componentType":5126,
			"count":16479,
			"max":[
				0.9878260493278503,
				2.7377586364746094,
				0.7651523351669312
			],
			"min":[
				-0.9089045524597168,
				-0.861921489238739,
				-1.9481308460235596
			],
			"type":"VEC3"
		},
		{
			"bufferView":2,
			"componentType":5126,
			"count":16479,
			"type":"VEC2"
		},
		{
			"bufferView":3,
			"componentType":5126,
			"count":16479,
			"type":"VEC3"
		},
		{
			"bufferView":4,
			"componentType":5126,
			"count":16479,
			"type":"VEC4"
		},
		{
			"bufferView":5,
			"componentType":5123,
			"count":72624,
			"type":"SCALAR"
		}
	],
	"bufferViews":[
		{
			"buffer":0,
			"byteLength":263664,
			"byteOffset":0,
			"target":34962
		},
		{
			"buffer":0,
			"byteLength":197748,
			"byteOffset":263664,
			"target":34962
		},
		{
			"buffer":0,
			"byteLength":131832,
			"byteOffset":461412,
			"target":34962
		},
		{
			"buffer":0,
			"byteLength":197748,
			"byteOffset":593244,
			"target":34962
		},
		{
			"buffer":0,
			"byteLength":263664,
			"byteOffset":790992,
			"target":34962
		},
		{
			"buffer":0,
			"byteLength":145248,
			"byteOffset":1054656,
			"target":34963
		},
		{
			"buffer":0,
			"byteLength":490822,
			"byteOffset":1199904
		}
	],
	"samplers":[
		{
			"magFilter":9729,
			"minFilter":9987
		}
	],
	"buffers":[
		{
			"byteLength":1690728,
			"uri":"data:application/octet-stream;base64,"
		}
	]
}
