{
	"asset":{
		"generator":"Khronos glTF Blender I/O v3.5.30",
		"version":"2.0"
	},
	"scene":0,
	"scenes":[
		{
			"extras":{
				"skinify":{
					"connect_mesh":0,
					"connect_parents":0,
					"generate_all":0,
					"thickness":0.800000011920929,
					"finger_thickness":0.25,
					"apply_mod":1,
					"parent_armature":1,
					"sub_level":1
				},
				"camera_settings":{},
				"uuid":"4b9dda3c-b783-43d8-9180-a20d4c855c48",
				"assets reported":{},
				"b_settings":0,
				"b_player":0,
				"s_cubemap_path":"",
				"b_renderer":0,
				"s_cubemap_ext":"jpg",
				"b_export":1,
				"export_path":"/Users/erbvi/Downloads/",
				"s_output":"exporting...",
				"s_project_name":"aframe20-prj",
				"b_interactive":0
			},
			"name":"Scene",
			"nodes":[
				0
			]
		}
	],
	"nodes":[
		{
			"mesh":0,
			"name":"Monster Silvan",
			"rotation":[
				0,
				0,
				-0.277849406003952,
				0.960624635219574
			],
			"scale":[
				0.9565565586090088,
				0.9565565586090088,
				0.9565566182136536
			]
		}
	],
	"materials":[
		{
			"doubleSided":true,
			"name":"Material.116",
			"pbrMetallicRoughness":{
				"baseColorTexture":{
					"index":0
				},
				"metallicFactor":0,
				"roughnessFactor":0
			}
		},
		{
			"doubleSided":true,
			"name":"Material.117",
			"pbrMetallicRoughness":{
				"baseColorFactor":[
					0.004895768128335476,
					0.003555562114343047,
					0.017387639731168747,
					1
				],
				"metallicFactor":0,
				"roughnessFactor":0.17616580426692963
			}
		}
	],
	"meshes":[
		{
			"name":"Sphere.001",
			"primitives":[
				{
					"attributes":{
						"POSITION":0,
						"TEXCOORD_0":1,
						"NORMAL":2,
						"TANGENT":3
					},
					"indices":4,
					"material":0
				},
				{
					"attributes":{
						"POSITION":5,
						"TEXCOORD_0":6,
						"NORMAL":7,
						"TANGENT":8
					},
					"indices":9,
					"material":1
				}
			]
		}
	],
	"textures":[
		{
			"sampler":0,
			"source":0
		}
	],
	"images":[
		{
			"bufferView":5,
			"mimeType":"image/png",
			"name":"Material"
		}
	],
	"accessors":[
		{
			"bufferView":0,
			"componentType":5126,
			"count":596,
			"max":[
				1.4675079584121704,
				1.567903757095337,
				1.2382733821868896
			],
			"min":[
				-0.5324906706809998,
				-0.4320962429046631,
				-0.7617259621620178
			],
			"type":"VEC3"
		},
		{
			"bufferView":1,
			"componentType":5126,
			"count":596,
			"type":"VEC2"
		},
		{
			"bufferView":2,
			"componentType":5126,
			"count":596,
			"type":"VEC3"
		},
		{
			"bufferView":3,
			"componentType":5126,
			"count":596,
			"type":"VEC4"
		},
		{
			"bufferView":4,
			"componentType":5123,
			"count":2880,
			"type":"SCALAR"
		},
		{
			"bufferView":6,
			"componentType":5126,
			"count":2960,
			"max":[
				3.201788902282715,
				3.3595380783081055,
				3.6889820098876953
			],
			"min":[
				-3.6486968994140625,
				-3.7605345249176025,
				-4.293881893157959
			],
			"type":"VEC3"
		},
		{
			"bufferView":7,
			"componentType":5126,
			"count":2960,
			"type":"VEC2"
		},
		{
			"bufferView":8,
			"componentType":5126,
			"count":2960,
			"type":"VEC3"
		},
		{
			"bufferView":9,
			"componentType":5126,
			"count":2960,
			"type":"VEC4"
		},
		{
			"bufferView":10,
			"componentType":5123,
			"count":4392,
			"type":"SCALAR"
		}
	],
	"bufferViews":[
		{
			"buffer":0,
			"byteLength":7152,
			"byteOffset":0,
			"target":34962
		},
		{
			"buffer":0,
			"byteLength":4768,
			"byteOffset":7152,
			"target":34962
		},
		{
			"buffer":0,
			"byteLength":7152,
			"byteOffset":11920,
			"target":34962
		},
		{
			"buffer":0,
			"byteLength":9536,
			"byteOffset":19072,
			"target":34962
		},
		{
			"buffer":0,
			"byteLength":5760,
			"byteOffset":28608,
			"target":34963
		},
		{
			"buffer":0,
			"byteLength":56146,
			"byteOffset":34368
		},
		{
			"buffer":0,
			"byteLength":35520,
			"byteOffset":90516,
			"target":34962
		},
		{
			"buffer":0,
			"byteLength":23680,
			"byteOffset":126036,
			"target":34962
		},
		{
			"buffer":0,
			"byteLength":35520,
			"byteOffset":149716,
			"target":34962
		},
		{
			"buffer":0,
			"byteLength":47360,
			"byteOffset":185236,
			"target":34962
		},
		{
			"buffer":0,
			"byteLength":8784,
			"byteOffset":232596,
			"target":34963
		}
	],
	"samplers":[
		{
			"magFilter":9729,
			"minFilter":9987
		}
	],
	"buffers":[
		{
			"byteLength":241380,
			"uri":"data:application/octet-stream;base64,"
		}
	]
}
