{
	"asset":{
		"generator":"Khronos glTF Blender I/O v3.5.30",
		"version":"2.0"
	},
	"scene":0,
	"scenes":[
		{
			"extras":{
				"b_settings":1,
				"b_renderer":0,
				"b_player":0,
				"b_export":1,
				"export_path":"/Users/erbvi/Desktop/Monsters/",
				"s_output":"exporting..."
			},
			"name":"Scene",
			"nodes":[
				0
			]
		}
	],
	"nodes":[
		{
			"mesh":0,
			"name":"Monster Samir",
			"rotation":[
				0,
				0.2088426798582077,
				0,
				0.9779492616653442
			],
			"scale":[
				0.29959285259246826,
				0.29959285259246826,
				0.29959285259246826
			]
		}
	],
	"materials":[
		{
			"doubleSided":true,
			"name":"Material.083",
			"pbrMetallicRoughness":{
				"metallicFactor":0,
				"roughnessFactor":0.5
			}
		},
		{
			"doubleSided":true,
			"name":"Material.082",
			"pbrMetallicRoughness":{
				"baseColorFactor":[
					0,
					0,
					0,
					1
				],
				"metallicFactor":0,
				"roughnessFactor":0.5
			}
		},
		{
			"doubleSided":true,
			"name":"Material.081",
			"pbrMetallicRoughness":{
				"metallicFactor":0,
				"roughnessFactor":0.5
			}
		}
	],
	"meshes":[
		{
			"name":"Sphere.002",
			"primitives":[
				{
					"attributes":{
						"POSITION":0,
						"TEXCOORD_0":1,
						"NORMAL":2
					},
					"indices":3,
					"material":0
				},
				{
					"attributes":{
						"POSITION":4,
						"TEXCOORD_0":5,
						"NORMAL":6
					},
					"indices":7,
					"material":1
				},
				{
					"attributes":{
						"POSITION":8,
						"TEXCOORD_0":9,
						"NORMAL":10
					},
					"indices":11,
					"material":2
				}
			]
		}
	],
	"accessors":[
		{
			"bufferView":0,
			"componentType":5126,
			"count":1984,
			"max":[
				0.46711671352386475,
				0.2937033176422119,
				3.729848861694336
			],
			"min":[
				-3.281416893005371,
				-3.454832077026367,
				-0.018686771392822266
			],
			"type":"VEC3"
		},
		{
			"bufferView":1,
			"componentType":5126,
			"count":1984,
			"type":"VEC2"
		},
		{
			"bufferView":2,
			"componentType":5126,
			"count":1984,
			"type":"VEC3"
		},
		{
			"bufferView":3,
			"componentType":5123,
			"count":2880,
			"type":"SCALAR"
		},
		{
			"bufferView":4,
			"componentType":5126,
			"count":864,
			"max":[
				5.242385387420654,
				-0.3606363534927368,
				3.136232376098633
			],
			"min":[
				-4.33114767074585,
				-4.735984802246094,
				-4.084321022033691
			],
			"type":"VEC3"
		},
		{
			"bufferView":5,
			"componentType":5126,
			"count":864,
			"type":"VEC2"
		},
		{
			"bufferView":6,
			"componentType":5126,
			"count":864,
			"type":"VEC3"
		},
		{
			"bufferView":7,
			"componentType":5123,
			"count":1440,
			"type":"SCALAR"
		},
		{
			"bufferView":8,
			"componentType":5126,
			"count":13554,
			"max":[
				3.6609156131744385,
				5.553563117980957,
				2.8044986724853516
			],
			"min":[
				-3.4521005153656006,
				-17.114564895629883,
				-4.702113151550293
			],
			"type":"VEC3"
		},
		{
			"bufferView":9,
			"componentType":5126,
			"count":13554,
			"type":"VEC2"
		},
		{
			"bufferView":10,
			"componentType":5126,
			"count":13554,
			"type":"VEC3"
		},
		{
			"bufferView":11,
			"componentType":5123,
			"count":22092,
			"type":"SCALAR"
		}
	],
	"bufferViews":[
		{
			"buffer":0,
			"byteLength":23808,
			"byteOffset":0,
			"target":34962
		},
		{
			"buffer":0,
			"byteLength":15872,
			"byteOffset":23808,
			"target":34962
		},
		{
			"buffer":0,
			"byteLength":23808,
			"byteOffset":39680,
			"target":34962
		},
		{
			"buffer":0,
			"byteLength":5760,
			"byteOffset":63488,
			"target":34963
		},
		{
			"buffer":0,
			"byteLength":10368,
			"byteOffset":69248,
			"target":34962
		},
		{
			"buffer":0,
			"byteLength":6912,
			"byteOffset":79616,
			"target":34962
		},
		{
			"buffer":0,
			"byteLength":10368,
			"byteOffset":86528,
			"target":34962
		},
		{
			"buffer":0,
			"byteLength":2880,
			"byteOffset":96896,
			"target":34963
		},
		{
			"buffer":0,
			"byteLength":162648,
			"byteOffset":99776,
			"target":34962
		},
		{
			"buffer":0,
			"byteLength":108432,
			"byteOffset":262424,
			"target":34962
		},
		{
			"buffer":0,
			"byteLength":162648,
			"byteOffset":370856,
			"target":34962
		},
		{
			"buffer":0,
			"byteLength":44184,
			"byteOffset":533504,
			"target":34963
		}
	],
	"buffers":[
		{
			"byteLength":577688,
			"uri":"data:application/octet-stream;base64,"
		}
	]
}
