{
	"asset":{
		"generator":"Khronos glTF Blender I/O v3.5.30",
		"version":"2.0"
	},
	"scene":0,
	"scenes":[
		{
			"extras":{
				"skinify":{
					"connect_mesh":0,
					"connect_parents":0,
					"generate_all":0,
					"thickness":0.800000011920929,
					"finger_thickness":0.25,
					"apply_mod":1,
					"parent_armature":1,
					"sub_level":1
				},
				"camera_settings":{},
				"uuid":"4b9dda3c-b783-43d8-9180-a20d4c855c48",
				"assets reported":{},
				"b_settings":0,
				"b_player":0,
				"s_cubemap_path":"",
				"b_renderer":0,
				"s_cubemap_ext":"jpg",
				"b_export":1,
				"export_path":"/Users/erbvi/Downloads/",
				"s_output":"exporting...",
				"s_project_name":"aframe20-prj",
				"b_interactive":0
			},
			"name":"Scene",
			"nodes":[
				0
			]
		}
	],
	"nodes":[
		{
			"mesh":0,
			"name":"Monster Hilal",
			"rotation":[
				-0.06167919188737869,
				0.997498631477356,
				0.007746315561234951,
				0.03364862501621246
			],
			"scale":[
				-0.29148733615875244,
				-0.007671747822314501,
				-0.015853624790906906
			]
		}
	],
	"meshes":[
		{
			"name":"Cube.002",
			"primitives":[
				{
					"attributes":{
						"COLOR_0":0,
						"POSITION":1,
						"TEXCOORD_0":2,
						"NORMAL":3
					},
					"indices":4
				}
			]
		}
	],
	"accessors":[
		{
			"bufferView":0,
			"componentType":5126,
			"count":6427,
			"type":"VEC4"
		},
		{
			"bufferView":1,
			"componentType":5126,
			"count":6427,
			"max":[
				9.458673477172852,
				454.619140625,
				63.60612487792969
			],
			"min":[
				-6.4329423904418945,
				-590.5006103515625,
				-83.71231842041016
			],
			"type":"VEC3"
		},
		{
			"bufferView":2,
			"componentType":5126,
			"count":6427,
			"type":"VEC2"
		},
		{
			"bufferView":3,
			"componentType":5126,
			"count":6427,
			"type":"VEC3"
		},
		{
			"bufferView":4,
			"componentType":5123,
			"count":35688,
			"type":"SCALAR"
		}
	],
	"bufferViews":[
		{
			"buffer":0,
			"byteLength":102832,
			"byteOffset":0,
			"target":34962
		},
		{
			"buffer":0,
			"byteLength":77124,
			"byteOffset":102832,
			"target":34962
		},
		{
			"buffer":0,
			"byteLength":51416,
			"byteOffset":179956,
			"target":34962
		},
		{
			"buffer":0,
			"byteLength":77124,
			"byteOffset":231372,
			"target":34962
		},
		{
			"buffer":0,
			"byteLength":71376,
			"byteOffset":308496,
			"target":34963
		}
	],
	"buffers":[
		{
			"byteLength":379872,
			"uri":"data:application/octet-stream;base64,"
		}
	]
}
