{
	"asset":{
		"generator":"Khronos glTF Blender I/O v3.5.30",
		"version":"2.0"
	},
	"scene":0,
	"scenes":[
		{
			"extras":{
				"b_settings":1,
				"b_renderer":0,
				"b_player":0,
				"b_export":1,
				"export_path":"/Users/erbvi/Desktop/Monsters/",
				"s_output":"exporting..."
			},
			"name":"Scene",
			"nodes":[
				0
			]
		}
	],
	"nodes":[
		{
			"mesh":0,
			"name":"Monster Pano",
			"rotation":[
				0,
				-0.9997169375419617,
				0,
				0.023795312270522118
			],
			"scale":[
				0.33411064743995667,
				0.33411064743995667,
				0.33411064743995667
			]
		}
	],
	"materials":[
		{
			"doubleSided":true,
			"name":"Material.088",
			"pbrMetallicRoughness":{
				"baseColorFactor":[
					0,
					0,
					0,
					1
				],
				"metallicFactor":0,
				"roughnessFactor":0.5
			}
		},
		{
			"doubleSided":true,
			"name":"Material.089",
			"pbrMetallicRoughness":{
				"baseColorFactor":[
					0,
					0.013751450926065445,
					0.04691708832979202,
					1
				],
				"metallicFactor":0,
				"roughnessFactor":0.5
			}
		},
		{
			"doubleSided":true,
			"name":"Material.090",
			"pbrMetallicRoughness":{
				"baseColorFactor":[
					0.15060029923915863,
					0.010700984857976437,
					0.8000000715255737,
					1
				],
				"metallicFactor":0,
				"roughnessFactor":0.5
			}
		},
		{
			"doubleSided":true,
			"name":"Material.091",
			"pbrMetallicRoughness":{
				"metallicFactor":0,
				"roughnessFactor":0.5
			}
		},
		{
			"doubleSided":true,
			"name":"Material.092",
			"pbrMetallicRoughness":{
				"baseColorFactor":[
					0,
					0,
					0,
					1
				],
				"metallicFactor":0,
				"roughnessFactor":0.5
			}
		},
		{
			"doubleSided":true,
			"name":"Material.094",
			"pbrMetallicRoughness":{
				"baseColorFactor":[
					0.03966487571597099,
					0.014641464687883854,
					0.0030021851416677237,
					1
				],
				"metallicFactor":0,
				"roughnessFactor":0.5
			}
		}
	],
	"meshes":[
		{
			"name":"Cylinder",
			"primitives":[
				{
					"attributes":{
						"POSITION":0,
						"TEXCOORD_0":1,
						"NORMAL":2
					},
					"indices":3,
					"material":0
				},
				{
					"attributes":{
						"POSITION":4,
						"TEXCOORD_0":5,
						"NORMAL":6
					},
					"indices":7,
					"material":1
				},
				{
					"attributes":{
						"POSITION":8,
						"TEXCOORD_0":9,
						"NORMAL":10
					},
					"indices":11,
					"material":2
				},
				{
					"attributes":{
						"POSITION":12,
						"TEXCOORD_0":13,
						"NORMAL":14
					},
					"indices":15,
					"material":3
				},
				{
					"attributes":{
						"POSITION":16,
						"TEXCOORD_0":17,
						"NORMAL":18
					},
					"indices":19,
					"material":4
				},
				{
					"attributes":{
						"POSITION":20,
						"TEXCOORD_0":21,
						"NORMAL":22
					},
					"indices":23,
					"material":5
				}
			]
		}
	],
	"accessors":[
		{
			"bufferView":0,
			"componentType":5126,
			"count":130,
			"max":[
				2.2980263233184814,
				7.969606399536133,
				2.1148111820220947
			],
			"min":[
				-1.3901475667953491,
				7.949573516845703,
				-1.5733627080917358
			],
			"type":"VEC3"
		},
		{
			"bufferView":1,
			"componentType":5126,
			"count":130,
			"type":"VEC2"
		},
		{
			"bufferView":2,
			"componentType":5126,
			"count":130,
			"type":"VEC3"
		},
		{
			"bufferView":3,
			"componentType":5123,
			"count":372,
			"type":"SCALAR"
		},
		{
			"bufferView":4,
			"componentType":5126,
			"count":7467,
			"max":[
				2.9027364253997803,
				8.846705436706543,
				1.6950478553771973
			],
			"min":[
				-2.0709002017974854,
				-13.844351768493652,
				-0.5997808575630188
			],
			"type":"VEC3"
		},
		{
			"bufferView":5,
			"componentType":5126,
			"count":7467,
			"type":"VEC2"
		},
		{
			"bufferView":6,
			"componentType":5126,
			"count":7467,
			"type":"VEC3"
		},
		{
			"bufferView":7,
			"componentType":5123,
			"count":44832,
			"type":"SCALAR"
		},
		{
			"bufferView":8,
			"componentType":5126,
			"count":2795,
			"max":[
				1.0407018661499023,
				7.53466796875,
				0.17053182423114777
			],
			"min":[
				-0.9161791205406189,
				5.9982829093933105,
				-1.5908255577087402
			],
			"type":"VEC3"
		},
		{
			"bufferView":9,
			"componentType":5126,
			"count":2795,
			"type":"VEC2"
		},
		{
			"bufferView":10,
			"componentType":5126,
			"count":2795,
			"type":"VEC3"
		},
		{
			"bufferView":11,
			"componentType":5123,
			"count":14400,
			"type":"SCALAR"
		},
		{
			"bufferView":12,
			"componentType":5126,
			"count":3913,
			"max":[
				-0.4498760402202606,
				6.868125915527344,
				-1.2194665670394897
			],
			"min":[
				-0.9919771552085876,
				5.922949314117432,
				-1.6747530698776245
			],
			"type":"VEC3"
		},
		{
			"bufferView":13,
			"componentType":5126,
			"count":3913,
			"type":"VEC2"
		},
		{
			"bufferView":14,
			"componentType":5126,
			"count":3913,
			"type":"VEC3"
		},
		{
			"bufferView":15,
			"componentType":5123,
			"count":20160,
			"type":"SCALAR"
		},
		{
			"bufferView":16,
			"componentType":5126,
			"count":229,
			"max":[
				1.492024540901184,
				10.080113410949707,
				1.3532603979110718
			],
			"min":[
				-0.6161647439002991,
				7.971923351287842,
				-0.7549290060997009
			],
			"type":"VEC3"
		},
		{
			"bufferView":17,
			"componentType":5126,
			"count":229,
			"type":"VEC2"
		},
		{
			"bufferView":18,
			"componentType":5126,
			"count":229,
			"type":"VEC3"
		},
		{
			"bufferView":19,
			"componentType":5123,
			"count":948,
			"type":"SCALAR"
		},
		{
			"bufferView":20,
			"componentType":5126,
			"count":1250,
			"max":[
				0.22106079757213593,
				5.828445911407471,
				0.13638336956501007
			],
			"min":[
				-0.7757593989372253,
				5.153891086578369,
				-1.5873514413833618
			],
			"type":"VEC3"
		},
		{
			"bufferView":21,
			"componentType":5126,
			"count":1250,
			"type":"VEC2"
		},
		{
			"bufferView":22,
			"componentType":5126,
			"count":1250,
			"type":"VEC3"
		},
		{
			"bufferView":23,
			"componentType":5123,
			"count":7488,
			"type":"SCALAR"
		}
	],
	"bufferViews":[
		{
			"buffer":0,
			"byteLength":1560,
			"byteOffset":0,
			"target":34962
		},
		{
			"buffer":0,
			"byteLength":1040,
			"byteOffset":1560,
			"target":34962
		},
		{
			"buffer":0,
			"byteLength":1560,
			"byteOffset":2600,
			"target":34962
		},
		{
			"buffer":0,
			"byteLength":744,
			"byteOffset":4160,
			"target":34963
		},
		{
			"buffer":0,
			"byteLength":89604,
			"byteOffset":4904,
			"target":34962
		},
		{
			"buffer":0,
			"byteLength":59736,
			"byteOffset":94508,
			"target":34962
		},
		{
			"buffer":0,
			"byteLength":89604,
			"byteOffset":154244,
			"target":34962
		},
		{
			"buffer":0,
			"byteLength":89664,
			"byteOffset":243848,
			"target":34963
		},
		{
			"buffer":0,
			"byteLength":33540,
			"byteOffset":333512,
			"target":34962
		},
		{
			"buffer":0,
			"byteLength":22360,
			"byteOffset":367052,
			"target":34962
		},
		{
			"buffer":0,
			"byteLength":33540,
			"byteOffset":389412,
			"target":34962
		},
		{
			"buffer":0,
			"byteLength":28800,
			"byteOffset":422952,
			"target":34963
		},
		{
			"buffer":0,
			"byteLength":46956,
			"byteOffset":451752,
			"target":34962
		},
		{
			"buffer":0,
			"byteLength":31304,
			"byteOffset":498708,
			"target":34962
		},
		{
			"buffer":0,
			"byteLength":46956,
			"byteOffset":530012,
			"target":34962
		},
		{
			"buffer":0,
			"byteLength":40320,
			"byteOffset":576968,
			"target":34963
		},
		{
			"buffer":0,
			"byteLength":2748,
			"byteOffset":617288,
			"target":34962
		},
		{
			"buffer":0,
			"byteLength":1832,
			"byteOffset":620036,
			"target":34962
		},
		{
			"buffer":0,
			"byteLength":2748,
			"byteOffset":621868,
			"target":34962
		},
		{
			"buffer":0,
			"byteLength":1896,
			"byteOffset":624616,
			"target":34963
		},
		{
			"buffer":0,
			"byteLength":15000,
			"byteOffset":626512,
			"target":34962
		},
		{
			"buffer":0,
			"byteLength":10000,
			"byteOffset":641512,
			"target":34962
		},
		{
			"buffer":0,
			"byteLength":15000,
			"byteOffset":651512,
			"target":34962
		},
		{
			"buffer":0,
			"byteLength":14976,
			"byteOffset":666512,
			"target":34963
		}
	],
	"buffers":[
		{
			"byteLength":681488,
			"uri":"data:application/octet-stream;base64,"
		}
	]
}
