{
	"asset":{
		"generator":"Khronos glTF Blender I/O v3.5.30",
		"version":"2.0"
	},
	"scene":0,
	"scenes":[
		{
			"extras":{
				"b_settings":1,
				"b_renderer":0,
				"b_player":0,
				"b_export":1,
				"export_path":"/Users/erbvi/Desktop/Monsters/",
				"s_output":"exporting..."
			},
			"name":"Scene",
			"nodes":[
				0
			]
		}
	],
	"nodes":[
		{
			"mesh":0,
			"name":"Monster Hilal",
			"rotation":[
				-0.06167919188737869,
				0.997498631477356,
				0.007746315561234951,
				0.03364862501621246
			],
			"scale":[
				-0.29148733615875244,
				-0.007671747822314501,
				-0.015853624790906906
			]
		}
	],
	"materials":[
		{
			"doubleSided":true,
			"name":"Material",
			"pbrMetallicRoughness":{
				"baseColorTexture":{
					"index":0
				},
				"metallicFactor":0,
				"roughnessFactor":0.5
			}
		}
	],
	"meshes":[
		{
			"name":"Cube.002",
			"primitives":[
				{
					"attributes":{
						"COLOR_0":0,
						"POSITION":1,
						"TEXCOORD_0":2,
						"NORMAL":3
					},
					"indices":4,
					"material":0
				}
			]
		}
	],
	"textures":[
		{
			"sampler":0,
			"source":0
		}
	],
	"images":[
		{
			"bufferView":5,
			"mimeType":"image/png",
			"name":"hpcolor_hilal"
		}
	],
	"accessors":[
		{
			"bufferView":0,
			"componentType":5126,
			"count":7510,
			"type":"VEC4"
		},
		{
			"bufferView":1,
			"componentType":5126,
			"count":7510,
			"max":[
				9.458673477172852,
				454.6191101074219,
				63.60612487792969
			],
			"min":[
				-6.4329423904418945,
				-590.5006103515625,
				-83.71231842041016
			],
			"type":"VEC3"
		},
		{
			"bufferView":2,
			"componentType":5126,
			"count":7510,
			"type":"VEC2"
		},
		{
			"bufferView":3,
			"componentType":5126,
			"count":7510,
			"type":"VEC3"
		},
		{
			"bufferView":4,
			"componentType":5123,
			"count":35688,
			"type":"SCALAR"
		}
	],
	"bufferViews":[
		{
			"buffer":0,
			"byteLength":120160,
			"byteOffset":0,
			"target":34962
		},
		{
			"buffer":0,
			"byteLength":90120,
			"byteOffset":120160,
			"target":34962
		},
		{
			"buffer":0,
			"byteLength":60080,
			"byteOffset":210280,
			"target":34962
		},
		{
			"buffer":0,
			"byteLength":90120,
			"byteOffset":270360,
			"target":34962
		},
		{
			"buffer":0,
			"byteLength":71376,
			"byteOffset":360480,
			"target":34963
		},
		{
			"buffer":0,
			"byteLength":803379,
			"byteOffset":431856
		}
	],
	"samplers":[
		{
			"magFilter":9729,
			"minFilter":9987
		}
	],
	"buffers":[
		{
			"byteLength":1235236,
			"uri":"data:application/octet-stream;base64,"
		}
	]
}
