{
	"asset":{
		"generator":"Khronos glTF Blender I/O v3.5.30",
		"version":"2.0"
	},
	"scene":0,
	"scenes":[
		{
			"extras":{
				"b_settings":1,
				"b_renderer":0,
				"b_player":0,
				"b_export":1,
				"export_path":"/Users/erbvi/Desktop/Monsters/",
				"s_output":"exporting..."
			},
			"name":"Scene",
			"nodes":[
				0
			]
		}
	],
	"nodes":[
		{
			"mesh":0,
			"name":"Monster Samir",
			"rotation":[
				0,
				0.2069862186908722,
				0,
				0.9783439636230469
			],
			"scale":[
				1.1103991270065308,
				2.085303783416748,
				1.104617714881897
			]
		}
	],
	"materials":[
		{
			"doubleSided":true,
			"name":"Material.022",
			"pbrMetallicRoughness":{
				"baseColorTexture":{
					"index":0
				},
				"metallicFactor":0,
				"roughnessFactor":0.5
			}
		},
		{
			"doubleSided":true,
			"name":"Material.023",
			"pbrMetallicRoughness":{
				"baseColorTexture":{
					"index":1
				},
				"metallicFactor":0,
				"roughnessFactor":0.5
			}
		},
		{
			"doubleSided":true,
			"name":"Material.024",
			"pbrMetallicRoughness":{
				"baseColorTexture":{
					"index":2
				},
				"metallicFactor":0,
				"roughnessFactor":0.5
			}
		}
	],
	"meshes":[
		{
			"name":"Cylinder.001",
			"primitives":[
				{
					"attributes":{
						"POSITION":0,
						"TEXCOORD_0":1,
						"NORMAL":2
					},
					"indices":3,
					"material":0
				},
				{
					"attributes":{
						"POSITION":4,
						"TEXCOORD_0":5,
						"NORMAL":6
					},
					"indices":7,
					"material":1
				},
				{
					"attributes":{
						"POSITION":8,
						"TEXCOORD_0":9,
						"NORMAL":10
					},
					"indices":11,
					"material":2
				}
			]
		}
	],
	"textures":[
		{
			"sampler":0,
			"source":0
		},
		{
			"sampler":0,
			"source":0
		},
		{
			"sampler":0,
			"source":0
		}
	],
	"images":[
		{
			"bufferView":4,
			"mimeType":"image/png",
			"name":"hpcolor_samir"
		}
	],
	"accessors":[
		{
			"bufferView":0,
			"componentType":5126,
			"count":13526,
			"max":[
				1.260225534439087,
				1.017980694770813,
				0.9704678058624268
			],
			"min":[
				-1.1883437633514404,
				-3.137140989303589,
				-1.6271153688430786
			],
			"type":"VEC3"
		},
		{
			"bufferView":1,
			"componentType":5126,
			"count":13526,
			"type":"VEC2"
		},
		{
			"bufferView":2,
			"componentType":5126,
			"count":13526,
			"type":"VEC3"
		},
		{
			"bufferView":3,
			"componentType":5123,
			"count":22092,
			"type":"SCALAR"
		},
		{
			"bufferView":5,
			"componentType":5126,
			"count":864,
			"max":[
				1.804626226425171,
				-0.06610653549432755,
				1.0852603912353516
			],
			"min":[
				-1.4909446239471436,
				-0.868118405342102,
				-1.413334846496582
			],
			"type":"VEC3"
		},
		{
			"bufferView":6,
			"componentType":5126,
			"count":864,
			"type":"VEC2"
		},
		{
			"bufferView":7,
			"componentType":5126,
			"count":864,
			"type":"VEC3"
		},
		{
			"bufferView":8,
			"componentType":5123,
			"count":1440,
			"type":"SCALAR"
		},
		{
			"bufferView":9,
			"componentType":5126,
			"count":1984,
			"max":[
				0.16079717874526978,
				0.05383577570319176,
				1.2906748056411743
			],
			"min":[
				-1.1295892000198364,
				-0.6332797408103943,
				-0.006465906277298927
			],
			"type":"VEC3"
		},
		{
			"bufferView":10,
			"componentType":5126,
			"count":1984,
			"type":"VEC2"
		},
		{
			"bufferView":11,
			"componentType":5126,
			"count":1984,
			"type":"VEC3"
		},
		{
			"bufferView":12,
			"componentType":5123,
			"count":2880,
			"type":"SCALAR"
		}
	],
	"bufferViews":[
		{
			"buffer":0,
			"byteLength":162312,
			"byteOffset":0,
			"target":34962
		},
		{
			"buffer":0,
			"byteLength":108208,
			"byteOffset":162312,
			"target":34962
		},
		{
			"buffer":0,
			"byteLength":162312,
			"byteOffset":270520,
			"target":34962
		},
		{
			"buffer":0,
			"byteLength":44184,
			"byteOffset":432832,
			"target":34963
		},
		{
			"buffer":0,
			"byteLength":205394,
			"byteOffset":477016
		},
		{
			"buffer":0,
			"byteLength":10368,
			"byteOffset":682412,
			"target":34962
		},
		{
			"buffer":0,
			"byteLength":6912,
			"byteOffset":692780,
			"target":34962
		},
		{
			"buffer":0,
			"byteLength":10368,
			"byteOffset":699692,
			"target":34962
		},
		{
			"buffer":0,
			"byteLength":2880,
			"byteOffset":710060,
			"target":34963
		},
		{
			"buffer":0,
			"byteLength":23808,
			"byteOffset":712940,
			"target":34962
		},
		{
			"buffer":0,
			"byteLength":15872,
			"byteOffset":736748,
			"target":34962
		},
		{
			"buffer":0,
			"byteLength":23808,
			"byteOffset":752620,
			"target":34962
		},
		{
			"buffer":0,
			"byteLength":5760,
			"byteOffset":776428,
			"target":34963
		}
	],
	"samplers":[
		{
			"magFilter":9729,
			"minFilter":9987
		}
	],
	"buffers":[
		{
			"byteLength":782188,
			"uri":"data:application/octet-stream;base64,"
		}
	]
}
