{
	"asset":{
		"generator":"Khronos glTF Blender I/O v3.5.30",
		"version":"2.0"
	},
	"scene":0,
	"scenes":[
		{
			"extras":{
				"b_settings":1,
				"b_renderer":0,
				"b_player":0,
				"b_export":1,
				"export_path":"/Users/erbvi/Desktop/Monsters/",
				"s_output":"exporting...",
				"s_project_name":"aframe-prj8"
			},
			"name":"Scene",
			"nodes":[
				0
			]
		}
	],
	"nodes":[
		{
			"mesh":0,
			"name":"Monster Isabel",
			"rotation":[
				-0.817451536655426,
				0.11889741569757462,
				-0.22211122512817383,
				0.5179798007011414
			]
		}
	],
	"materials":[
		{
			"doubleSided":true,
			"name":"Material.109",
			"pbrMetallicRoughness":{
				"baseColorTexture":{
					"index":0
				},
				"metallicFactor":0,
				"roughnessFactor":0.5
			}
		}
	],
	"meshes":[
		{
			"name":"Cone.002",
			"primitives":[
				{
					"attributes":{
						"COLOR_0":0,
						"POSITION":1,
						"TEXCOORD_0":2,
						"NORMAL":3
					},
					"indices":4,
					"material":0
				}
			]
		}
	],
	"textures":[
		{
			"sampler":0,
			"source":0
		}
	],
	"images":[
		{
			"bufferView":5,
			"mimeType":"image/png",
			"name":"HPColor_Isabel"
		}
	],
	"accessors":[
		{
			"bufferView":0,
			"componentType":5126,
			"count":12709,
			"type":"VEC4"
		},
		{
			"bufferView":1,
			"componentType":5126,
			"count":12709,
			"max":[
				2.391160249710083,
				1.4012067317962646,
				2.2955257892608643
			],
			"min":[
				-2.346879482269287,
				-1.419463872909546,
				-2.9651284217834473
			],
			"type":"VEC3"
		},
		{
			"bufferView":2,
			"componentType":5126,
			"count":12709,
			"type":"VEC2"
		},
		{
			"bufferView":3,
			"componentType":5126,
			"count":12709,
			"type":"VEC3"
		},
		{
			"bufferView":4,
			"componentType":5123,
			"count":53946,
			"type":"SCALAR"
		}
	],
	"bufferViews":[
		{
			"buffer":0,
			"byteLength":203344,
			"byteOffset":0,
			"target":34962
		},
		{
			"buffer":0,
			"byteLength":152508,
			"byteOffset":203344,
			"target":34962
		},
		{
			"buffer":0,
			"byteLength":101672,
			"byteOffset":355852,
			"target":34962
		},
		{
			"buffer":0,
			"byteLength":152508,
			"byteOffset":457524,
			"target":34962
		},
		{
			"buffer":0,
			"byteLength":107892,
			"byteOffset":610032,
			"target":34963
		},
		{
			"buffer":0,
			"byteLength":593370,
			"byteOffset":717924
		}
	],
	"samplers":[
		{
			"magFilter":9729,
			"minFilter":9987
		}
	],
	"buffers":[
		{
			"byteLength":1311296,
			"uri":"data:application/octet-stream;base64,"
		}
	]
}
