{
	"asset":{
		"generator":"Khronos glTF Blender I/O v3.5.30",
		"version":"2.0"
	},
	"scene":0,
	"scenes":[
		{
			"extras":{
				"skinify":{
					"connect_mesh":0,
					"connect_parents":0,
					"generate_all":0,
					"thickness":0.800000011920929,
					"finger_thickness":0.25,
					"apply_mod":1,
					"parent_armature":1,
					"sub_level":1
				},
				"camera_settings":{},
				"uuid":"4b9dda3c-b783-43d8-9180-a20d4c855c48",
				"assets reported":{},
				"b_settings":1,
				"b_player":0,
				"s_cubemap_path":"",
				"b_renderer":0,
				"s_cubemap_ext":"jpg",
				"b_export":1,
				"export_path":"/Users/erbvi/Desktop/",
				"s_output":"exporting...",
				"s_project_name":"aframe18-prj",
				"b_interactive":0
			},
			"name":"Scene",
			"nodes":[
				0
			]
		}
	],
	"nodes":[
		{
			"mesh":0,
			"name":"Monster Noah",
			"rotation":[
				-0.4830503463745117,
				0.4927906394004822,
				-0.5066379308700562,
				0.5168537497520447
			],
			"scale":[
				0.8246736526489258,
				0.8246736526489258,
				0.8246737122535706
			]
		}
	],
	"materials":[
		{
			"doubleSided":true,
			"name":"Mettalig",
			"pbrMetallicRoughness":{
				"baseColorFactor":[
					0,
					0,
					0,
					1
				],
				"metallicFactor":0.8500000238418579,
				"roughnessFactor":0.5
			}
		},
		{
			"doubleSided":true,
			"name":"Material.059",
			"pbrMetallicRoughness":{
				"baseColorFactor":[
					0,
					0,
					0,
					1
				],
				"metallicFactor":0,
				"roughnessFactor":0.5
			}
		},
		{
			"doubleSided":true,
			"name":"Material.060",
			"pbrMetallicRoughness":{
				"baseColorFactor":[
					0,
					0,
					0,
					1
				],
				"metallicFactor":0,
				"roughnessFactor":0.5
			}
		},
		{
			"doubleSided":true,
			"name":"Material.061",
			"pbrMetallicRoughness":{
				"baseColorFactor":[
					0,
					0,
					0,
					1
				],
				"metallicFactor":0,
				"roughnessFactor":0.5
			}
		},
		{
			"doubleSided":true,
			"name":"Material.062",
			"pbrMetallicRoughness":{
				"baseColorFactor":[
					0,
					0,
					0,
					1
				],
				"metallicFactor":0,
				"roughnessFactor":0.5
			}
		},
		{
			"doubleSided":true,
			"name":"Material.063",
			"pbrMetallicRoughness":{
				"baseColorFactor":[
					0,
					0,
					0,
					1
				],
				"metallicFactor":0,
				"roughnessFactor":0.5
			}
		},
		{
			"doubleSided":true,
			"name":"Material.064",
			"pbrMetallicRoughness":{
				"baseColorFactor":[
					0,
					0,
					0,
					1
				],
				"metallicFactor":0,
				"roughnessFactor":0.5
			}
		},
		{
			"doubleSided":true,
			"name":"Material.065",
			"pbrMetallicRoughness":{
				"baseColorFactor":[
					0,
					0,
					0,
					1
				],
				"metallicFactor":0,
				"roughnessFactor":0.5
			}
		},
		{
			"doubleSided":true,
			"name":"Material.066",
			"pbrMetallicRoughness":{
				"baseColorFactor":[
					0,
					0,
					0,
					1
				],
				"metallicFactor":0,
				"roughnessFactor":0.5
			}
		},
		{
			"doubleSided":true,
			"name":"Material.067",
			"pbrMetallicRoughness":{
				"baseColorFactor":[
					0,
					0,
					0,
					1
				],
				"metallicFactor":0,
				"roughnessFactor":0.5
			}
		},
		{
			"doubleSided":true,
			"name":"Material.068",
			"pbrMetallicRoughness":{
				"baseColorFactor":[
					0,
					0,
					0,
					1
				],
				"metallicFactor":0,
				"roughnessFactor":0.5
			}
		},
		{
			"doubleSided":true,
			"name":"Material bot",
			"pbrMetallicRoughness":{
				"baseColorTexture":{
					"index":0
				},
				"metallicFactor":0.8497409820556641,
				"roughnessFactor":0.5
			}
		}
	],
	"meshes":[
		{
			"name":"Sphere.012",
			"primitives":[
				{
					"attributes":{
						"POSITION":0,
						"TEXCOORD_0":1,
						"NORMAL":2
					},
					"indices":3,
					"material":0
				},
				{
					"attributes":{
						"POSITION":4,
						"TEXCOORD_0":5,
						"NORMAL":6
					},
					"indices":7,
					"material":1
				},
				{
					"attributes":{
						"POSITION":8,
						"TEXCOORD_0":9,
						"NORMAL":10
					},
					"indices":7,
					"material":2
				},
				{
					"attributes":{
						"POSITION":11,
						"TEXCOORD_0":12,
						"NORMAL":13
					},
					"indices":14,
					"material":3
				},
				{
					"attributes":{
						"POSITION":15,
						"TEXCOORD_0":16,
						"NORMAL":17
					},
					"indices":18,
					"material":4
				},
				{
					"attributes":{
						"POSITION":19,
						"TEXCOORD_0":20,
						"NORMAL":21
					},
					"indices":14,
					"material":5
				},
				{
					"attributes":{
						"POSITION":22,
						"TEXCOORD_0":23,
						"NORMAL":24
					},
					"indices":18,
					"material":6
				},
				{
					"attributes":{
						"POSITION":25,
						"TEXCOORD_0":26,
						"NORMAL":27
					},
					"indices":14,
					"material":7
				},
				{
					"attributes":{
						"POSITION":28,
						"TEXCOORD_0":29,
						"NORMAL":30
					},
					"indices":18,
					"material":8
				},
				{
					"attributes":{
						"POSITION":31,
						"TEXCOORD_0":32,
						"NORMAL":33
					},
					"indices":18,
					"material":9
				},
				{
					"attributes":{
						"POSITION":34,
						"TEXCOORD_0":35,
						"NORMAL":36
					},
					"indices":14,
					"material":10
				},
				{
					"attributes":{
						"POSITION":37,
						"TEXCOORD_0":38,
						"NORMAL":39
					},
					"indices":40,
					"material":11
				}
			]
		}
	],
	"textures":[
		{
			"sampler":0,
			"source":0
		}
	],
	"images":[
		{
			"bufferView":41,
			"mimeType":"image/png",
			"name":"face angry"
		}
	],
	"accessors":[
		{
			"bufferView":0,
			"componentType":5126,
			"count":1678,
			"max":[
				-0.6779096722602844,
				0.7225044369697571,
				3.106022357940674
			],
			"min":[
				-4.514221668243408,
				-0.9846023321151733,
				-3.296428680419922
			],
			"type":"VEC3"
		},
		{
			"bufferView":1,
			"componentType":5126,
			"count":1678,
			"type":"VEC2"
		},
		{
			"bufferView":2,
			"componentType":5126,
			"count":1678,
			"type":"VEC3"
		},
		{
			"bufferView":3,
			"componentType":5123,
			"count":8352,
			"type":"SCALAR"
		},
		{
			"bufferView":4,
			"componentType":5126,
			"count":559,
			"max":[
				2.982992172241211,
				0.8834997415542603,
				0.9465399384498596
			],
			"min":[
				1.0983071327209473,
				-1.001184344291687,
				-0.9385202527046204
			],
			"type":"VEC3"
		},
		{
			"bufferView":5,
			"componentType":5126,
			"count":559,
			"type":"VEC2"
		},
		{
			"bufferView":6,
			"componentType":5126,
			"count":559,
			"type":"VEC3"
		},
		{
			"bufferView":7,
			"componentType":5123,
			"count":2880,
			"type":"SCALAR"
		},
		{
			"bufferView":8,
			"componentType":5126,
			"count":559,
			"max":[
				1.1787738800048828,
				0.9195205569267273,
				0.9465399384498596
			],
			"min":[
				-0.70591139793396,
				-0.96516352891922,
				-0.9385202527046204
			],
			"type":"VEC3"
		},
		{
			"bufferView":9,
			"componentType":5126,
			"count":559,
			"type":"VEC2"
		},
		{
			"bufferView":10,
			"componentType":5126,
			"count":559,
			"type":"VEC3"
		},
		{
			"bufferView":11,
			"componentType":5126,
			"count":559,
			"max":[
				3.118126392364502,
				0.4306435286998749,
				1.3507537841796875
			],
			"min":[
				2.240480899810791,
				-0.4472673833370209,
				0.47293373942375183
			],
			"type":"VEC3"
		},
		{
			"bufferView":12,
			"componentType":5126,
			"count":559,
			"type":"VEC2"
		},
		{
			"bufferView":13,
			"componentType":5126,
			"count":559,
			"type":"VEC3"
		},
		{
			"bufferView":14,
			"componentType":5123,
			"count":2880,
			"type":"SCALAR"
		},
		{
			"bufferView":15,
			"componentType":5126,
			"count":66,
			"max":[
				5.3353962898254395,
				0.48590347170829773,
				2.567535161972046
			],
			"min":[
				2.4353585243225098,
				-0.4970760643482208,
				0.4757870137691498
			],
			"type":"VEC3"
		},
		{
			"bufferView":16,
			"componentType":5126,
			"count":66,
			"type":"VEC2"
		},
		{
			"bufferView":17,
			"componentType":5126,
			"count":66,
			"type":"VEC3"
		},
		{
			"bufferView":18,
			"componentType":5123,
			"count":192,
			"type":"SCALAR"
		},
		{
			"bufferView":19,
			"componentType":5126,
			"count":559,
			"max":[
				3.143834114074707,
				0.4301327168941498,
				-0.5050998330116272
			],
			"min":[
				2.2659413814544678,
				-0.44777819514274597,
				-1.3831673860549927
			],
			"type":"VEC3"
		},
		{
			"bufferView":20,
			"componentType":5126,
			"count":559,
			"type":"VEC2"
		},
		{
			"bufferView":21,
			"componentType":5126,
			"count":559,
			"type":"VEC3"
		},
		{
			"bufferView":22,
			"componentType":5126,
			"count":66,
			"max":[
				5.2832560539245605,
				0.48588407039642334,
				-0.5542519688606262
			],
			"min":[
				2.423203468322754,
				-0.4970954954624176,
				-2.7184815406799316
			],
			"type":"VEC3"
		},
		{
			"bufferView":23,
			"componentType":5126,
			"count":66,
			"type":"VEC2"
		},
		{
			"bufferView":24,
			"componentType":5126,
			"count":66,
			"type":"VEC3"
		},
		{
			"bufferView":25,
			"componentType":5126,
			"count":559,
			"max":[
				0.453676700592041,
				0.4556262791156769,
				1.5158348083496094
			],
			"min":[
				-0.42423486709594727,
				-0.42228463292121887,
				0.637748658657074
			],
			"type":"VEC3"
		},
		{
			"bufferView":26,
			"componentType":5126,
			"count":559,
			"type":"VEC2"
		},
		{
			"bufferView":27,
			"componentType":5126,
			"count":559,
			"type":"VEC3"
		},
		{
			"bufferView":28,
			"componentType":5126,
			"count":66,
			"max":[
				0.5411310195922852,
				0.5109555721282959,
				4.206985950469971
			],
			"min":[
				-0.46715331077575684,
				-0.47202396392822266,
				1.0931247472763062
			],
			"type":"VEC3"
		},
		{
			"bufferView":29,
			"componentType":5126,
			"count":66,
			"type":"VEC2"
		},
		{
			"bufferView":30,
			"componentType":5126,
			"count":66,
			"type":"VEC3"
		},
		{
			"bufferView":31,
			"componentType":5126,
			"count":66,
			"max":[
				0.5217282772064209,
				0.5109787583351135,
				-1.0414670705795288
			],
			"min":[
				-0.4610886573791504,
				-0.4964509904384613,
				-4.174711227416992
			],
			"type":"VEC3"
		},
		{
			"bufferView":32,
			"componentType":5126,
			"count":66,
			"type":"VEC2"
		},
		{
			"bufferView":33,
			"componentType":5126,
			"count":66,
			"type":"VEC3"
		},
		{
			"bufferView":34,
			"componentType":5126,
			"count":559,
			"max":[
				0.475156307220459,
				0.4675305485725403,
				-0.6089748740196228
			],
			"min":[
				-0.4018329381942749,
				-0.4103943705558777,
				-1.4861236810684204
			],
			"type":"VEC3"
		},
		{
			"bufferView":35,
			"componentType":5126,
			"count":559,
			"type":"VEC2"
		},
		{
			"bufferView":36,
			"componentType":5126,
			"count":559,
			"type":"VEC3"
		},
		{
			"bufferView":37,
			"componentType":5126,
			"count":509,
			"max":[
				-0.7355675101280212,
				0.9565773010253906,
				0.945376992225647
			],
			"min":[
				-2.620252847671509,
				-0.9257813692092896,
				-0.9373573064804077
			],
			"type":"VEC3"
		},
		{
			"bufferView":38,
			"componentType":5126,
			"count":509,
			"type":"VEC2"
		},
		{
			"bufferView":39,
			"componentType":5126,
			"count":509,
			"type":"VEC3"
		},
		{
			"bufferView":40,
			"componentType":5123,
			"count":2880,
			"type":"SCALAR"
		}
	],
	"bufferViews":[
		{
			"buffer":0,
			"byteLength":20136,
			"byteOffset":0,
			"target":34962
		},
		{
			"buffer":0,
			"byteLength":13424,
			"byteOffset":20136,
			"target":34962
		},
		{
			"buffer":0,
			"byteLength":20136,
			"byteOffset":33560,
			"target":34962
		},
		{
			"buffer":0,
			"byteLength":16704,
			"byteOffset":53696,
			"target":34963
		},
		{
			"buffer":0,
			"byteLength":6708,
			"byteOffset":70400,
			"target":34962
		},
		{
			"buffer":0,
			"byteLength":4472,
			"byteOffset":77108,
			"target":34962
		},
		{
			"buffer":0,
			"byteLength":6708,
			"byteOffset":81580,
			"target":34962
		},
		{
			"buffer":0,
			"byteLength":5760,
			"byteOffset":88288,
			"target":34963
		},
		{
			"buffer":0,
			"byteLength":6708,
			"byteOffset":94048,
			"target":34962
		},
		{
			"buffer":0,
			"byteLength":4472,
			"byteOffset":100756,
			"target":34962
		},
		{
			"buffer":0,
			"byteLength":6708,
			"byteOffset":105228,
			"target":34962
		},
		{
			"buffer":0,
			"byteLength":6708,
			"byteOffset":111936,
			"target":34962
		},
		{
			"buffer":0,
			"byteLength":4472,
			"byteOffset":118644,
			"target":34962
		},
		{
			"buffer":0,
			"byteLength":6708,
			"byteOffset":123116,
			"target":34962
		},
		{
			"buffer":0,
			"byteLength":5760,
			"byteOffset":129824,
			"target":34963
		},
		{
			"buffer":0,
			"byteLength":792,
			"byteOffset":135584,
			"target":34962
		},
		{
			"buffer":0,
			"byteLength":528,
			"byteOffset":136376,
			"target":34962
		},
		{
			"buffer":0,
			"byteLength":792,
			"byteOffset":136904,
			"target":34962
		},
		{
			"buffer":0,
			"byteLength":384,
			"byteOffset":137696,
			"target":34963
		},
		{
			"buffer":0,
			"byteLength":6708,
			"byteOffset":138080,
			"target":34962
		},
		{
			"buffer":0,
			"byteLength":4472,
			"byteOffset":144788,
			"target":34962
		},
		{
			"buffer":0,
			"byteLength":6708,
			"byteOffset":149260,
			"target":34962
		},
		{
			"buffer":0,
			"byteLength":792,
			"byteOffset":155968,
			"target":34962
		},
		{
			"buffer":0,
			"byteLength":528,
			"byteOffset":156760,
			"target":34962
		},
		{
			"buffer":0,
			"byteLength":792,
			"byteOffset":157288,
			"target":34962
		},
		{
			"buffer":0,
			"byteLength":6708,
			"byteOffset":158080,
			"target":34962
		},
		{
			"buffer":0,
			"byteLength":4472,
			"byteOffset":164788,
			"target":34962
		},
		{
			"buffer":0,
			"byteLength":6708,
			"byteOffset":169260,
			"target":34962
		},
		{
			"buffer":0,
			"byteLength":792,
			"byteOffset":175968,
			"target":34962
		},
		{
			"buffer":0,
			"byteLength":528,
			"byteOffset":176760,
			"target":34962
		},
		{
			"buffer":0,
			"byteLength":792,
			"byteOffset":177288,
			"target":34962
		},
		{
			"buffer":0,
			"byteLength":792,
			"byteOffset":178080,
			"target":34962
		},
		{
			"buffer":0,
			"byteLength":528,
			"byteOffset":178872,
			"target":34962
		},
		{
			"buffer":0,
			"byteLength":792,
			"byteOffset":179400,
			"target":34962
		},
		{
			"buffer":0,
			"byteLength":6708,
			"byteOffset":180192,
			"target":34962
		},
		{
			"buffer":0,
			"byteLength":4472,
			"byteOffset":186900,
			"target":34962
		},
		{
			"buffer":0,
			"byteLength":6708,
			"byteOffset":191372,
			"target":34962
		},
		{
			"buffer":0,
			"byteLength":6108,
			"byteOffset":198080,
			"target":34962
		},
		{
			"buffer":0,
			"byteLength":4072,
			"byteOffset":204188,
			"target":34962
		},
		{
			"buffer":0,
			"byteLength":6108,
			"byteOffset":208260,
			"target":34962
		},
		{
			"buffer":0,
			"byteLength":5760,
			"byteOffset":214368,
			"target":34963
		},
		{
			"buffer":0,
			"byteLength":52805,
			"byteOffset":220128
		}
	],
	"samplers":[
		{
			"magFilter":9729,
			"minFilter":9987
		}
	],
	"buffers":[
		{
			"byteLength":272936,
			"uri":"data:application/octet-stream;base64,"
		}
	]
}
