{
	"asset":{
		"generator":"Khronos glTF Blender I/O v3.5.30",
		"version":"2.0"
	},
	"scene":0,
	"scenes":[
		{
			"extras":{
				"b_settings":1,
				"b_renderer":0,
				"b_player":0,
				"b_export":1,
				"export_path":"/Users/erbvi/Desktop/Monsters/",
				"s_output":"exporting...",
				"s_project_name":"aframe-prj7"
			},
			"name":"Scene",
			"nodes":[
				0
			]
		}
	],
	"nodes":[
		{
			"mesh":0,
			"name":"Monster Noah",
			"rotation":[
				0.4949846565723419,
				-0.5049655437469482,
				-0.49498462677001953,
				0.5049655437469482
			],
			"scale":[
				0.7522948980331421,
				0.7522948980331421,
				0.7522947788238525
			]
		}
	],
	"materials":[
		{
			"doubleSided":true,
			"name":"Mettalig.001",
			"pbrMetallicRoughness":{
				"baseColorFactor":[
					0,
					0,
					0,
					1
				],
				"metallicFactor":0.8500000238418579,
				"roughnessFactor":0.5
			}
		},
		{
			"doubleSided":true,
			"name":"Material.043",
			"pbrMetallicRoughness":{
				"baseColorFactor":[
					0,
					0,
					0,
					1
				],
				"metallicFactor":0,
				"roughnessFactor":0.5
			}
		},
		{
			"doubleSided":true,
			"name":"Material.044",
			"pbrMetallicRoughness":{
				"baseColorFactor":[
					0,
					0,
					0,
					1
				],
				"metallicFactor":0,
				"roughnessFactor":0.5
			}
		},
		{
			"doubleSided":true,
			"name":"Material.045",
			"pbrMetallicRoughness":{
				"baseColorFactor":[
					0,
					0,
					0,
					1
				],
				"metallicFactor":0,
				"roughnessFactor":0.5
			}
		},
		{
			"doubleSided":true,
			"name":"Material.046",
			"pbrMetallicRoughness":{
				"baseColorFactor":[
					0,
					0,
					0,
					1
				],
				"metallicFactor":0,
				"roughnessFactor":0.5
			}
		},
		{
			"doubleSided":true,
			"name":"Material.047",
			"pbrMetallicRoughness":{
				"baseColorFactor":[
					0,
					0,
					0,
					1
				],
				"metallicFactor":0,
				"roughnessFactor":0.5
			}
		},
		{
			"doubleSided":true,
			"name":"Material.048",
			"pbrMetallicRoughness":{
				"baseColorFactor":[
					0,
					0,
					0,
					1
				],
				"metallicFactor":0,
				"roughnessFactor":0.5
			}
		},
		{
			"doubleSided":true,
			"name":"Material.049",
			"pbrMetallicRoughness":{
				"baseColorFactor":[
					0,
					0,
					0,
					1
				],
				"metallicFactor":0,
				"roughnessFactor":0.5
			}
		},
		{
			"doubleSided":true,
			"name":"Material.050",
			"pbrMetallicRoughness":{
				"baseColorFactor":[
					0,
					0,
					0,
					1
				],
				"metallicFactor":0,
				"roughnessFactor":0.5
			}
		},
		{
			"doubleSided":true,
			"name":"Material.051",
			"pbrMetallicRoughness":{
				"baseColorFactor":[
					0,
					0,
					0,
					1
				],
				"metallicFactor":0,
				"roughnessFactor":0.5
			}
		},
		{
			"doubleSided":true,
			"name":"Material.052",
			"pbrMetallicRoughness":{
				"baseColorFactor":[
					0,
					0,
					0,
					1
				],
				"metallicFactor":0,
				"roughnessFactor":0.5
			}
		},
		{
			"doubleSided":true,
			"name":"Material bot.001",
			"pbrMetallicRoughness":{
				"baseColorTexture":{
					"index":0
				},
				"metallicFactor":0.8497409820556641,
				"roughnessFactor":0.5
			}
		}
	],
	"meshes":[
		{
			"name":"Sphere.012",
			"primitives":[
				{
					"attributes":{
						"POSITION":0,
						"TEXCOORD_0":1,
						"NORMAL":2
					},
					"indices":3,
					"material":0
				},
				{
					"attributes":{
						"POSITION":4,
						"TEXCOORD_0":5,
						"NORMAL":6
					},
					"indices":7,
					"material":1
				},
				{
					"attributes":{
						"POSITION":8,
						"TEXCOORD_0":9,
						"NORMAL":10
					},
					"indices":7,
					"material":2
				},
				{
					"attributes":{
						"POSITION":11,
						"TEXCOORD_0":12,
						"NORMAL":13
					},
					"indices":14,
					"material":3
				},
				{
					"attributes":{
						"POSITION":15,
						"TEXCOORD_0":16,
						"NORMAL":17
					},
					"indices":18,
					"material":4
				},
				{
					"attributes":{
						"POSITION":19,
						"TEXCOORD_0":20,
						"NORMAL":21
					},
					"indices":14,
					"material":5
				},
				{
					"attributes":{
						"POSITION":22,
						"TEXCOORD_0":23,
						"NORMAL":24
					},
					"indices":18,
					"material":6
				},
				{
					"attributes":{
						"POSITION":25,
						"TEXCOORD_0":26,
						"NORMAL":27
					},
					"indices":14,
					"material":7
				},
				{
					"attributes":{
						"POSITION":28,
						"TEXCOORD_0":29,
						"NORMAL":30
					},
					"indices":31,
					"material":8
				},
				{
					"attributes":{
						"POSITION":32,
						"TEXCOORD_0":33,
						"NORMAL":34
					},
					"indices":31,
					"material":9
				},
				{
					"attributes":{
						"POSITION":35,
						"TEXCOORD_0":36,
						"NORMAL":37
					},
					"indices":14,
					"material":10
				},
				{
					"attributes":{
						"POSITION":38,
						"TEXCOORD_0":39,
						"NORMAL":40
					},
					"indices":41,
					"material":11
				}
			]
		}
	],
	"textures":[
		{
			"sampler":0,
			"source":0
		}
	],
	"images":[
		{
			"bufferView":42,
			"mimeType":"image/png",
			"name":"face angry"
		}
	],
	"accessors":[
		{
			"bufferView":0,
			"componentType":5126,
			"count":1678,
			"max":[
				-0.6779108047485352,
				0.7225044965744019,
				3.1060221195220947
			],
			"min":[
				-4.514222621917725,
				-0.9846022725105286,
				-3.296428918838501
			],
			"type":"VEC3"
		},
		{
			"bufferView":1,
			"componentType":5126,
			"count":1678,
			"type":"VEC2"
		},
		{
			"bufferView":2,
			"componentType":5126,
			"count":1678,
			"type":"VEC3"
		},
		{
			"bufferView":3,
			"componentType":5123,
			"count":8352,
			"type":"SCALAR"
		},
		{
			"bufferView":4,
			"componentType":5126,
			"count":559,
			"max":[
				2.9829909801483154,
				0.883499801158905,
				0.9465397000312805
			],
			"min":[
				1.0983060598373413,
				-1.0011842250823975,
				-0.9385204911231995
			],
			"type":"VEC3"
		},
		{
			"bufferView":5,
			"componentType":5126,
			"count":559,
			"type":"VEC2"
		},
		{
			"bufferView":6,
			"componentType":5126,
			"count":559,
			"type":"VEC3"
		},
		{
			"bufferView":7,
			"componentType":5123,
			"count":2880,
			"type":"SCALAR"
		},
		{
			"bufferView":8,
			"componentType":5126,
			"count":559,
			"max":[
				1.1787728071212769,
				0.9195206165313721,
				0.9465397000312805
			],
			"min":[
				-0.7059125304222107,
				-0.9651634693145752,
				-0.9385204911231995
			],
			"type":"VEC3"
		},
		{
			"bufferView":9,
			"componentType":5126,
			"count":559,
			"type":"VEC2"
		},
		{
			"bufferView":10,
			"componentType":5126,
			"count":559,
			"type":"VEC3"
		},
		{
			"bufferView":11,
			"componentType":5126,
			"count":559,
			"max":[
				3.1181252002716064,
				0.43064358830451965,
				1.3507535457611084
			],
			"min":[
				2.2404797077178955,
				-0.4472673237323761,
				0.47293350100517273
			],
			"type":"VEC3"
		},
		{
			"bufferView":12,
			"componentType":5126,
			"count":559,
			"type":"VEC2"
		},
		{
			"bufferView":13,
			"componentType":5126,
			"count":559,
			"type":"VEC3"
		},
		{
			"bufferView":14,
			"componentType":5123,
			"count":2880,
			"type":"SCALAR"
		},
		{
			"bufferView":15,
			"componentType":5126,
			"count":66,
			"max":[
				5.335395336151123,
				0.4859035313129425,
				2.567534923553467
			],
			"min":[
				2.4353573322296143,
				-0.49707600474357605,
				0.4757867753505707
			],
			"type":"VEC3"
		},
		{
			"bufferView":16,
			"componentType":5126,
			"count":66,
			"type":"VEC2"
		},
		{
			"bufferView":17,
			"componentType":5126,
			"count":66,
			"type":"VEC3"
		},
		{
			"bufferView":18,
			"componentType":5123,
			"count":192,
			"type":"SCALAR"
		},
		{
			"bufferView":19,
			"componentType":5126,
			"count":559,
			"max":[
				3.1438329219818115,
				0.43013277649879456,
				-0.5051000714302063
			],
			"min":[
				2.2659401893615723,
				-0.4477781355381012,
				-1.3831676244735718
			],
			"type":"VEC3"
		},
		{
			"bufferView":20,
			"componentType":5126,
			"count":559,
			"type":"VEC2"
		},
		{
			"bufferView":21,
			"componentType":5126,
			"count":559,
			"type":"VEC3"
		},
		{
			"bufferView":22,
			"componentType":5126,
			"count":66,
			"max":[
				5.283255100250244,
				0.4858841300010681,
				-0.5542522072792053
			],
			"min":[
				2.4232022762298584,
				-0.4970954358577728,
				-2.7184817790985107
			],
			"type":"VEC3"
		},
		{
			"bufferView":23,
			"componentType":5126,
			"count":66,
			"type":"VEC2"
		},
		{
			"bufferView":24,
			"componentType":5126,
			"count":66,
			"type":"VEC3"
		},
		{
			"bufferView":25,
			"componentType":5126,
			"count":559,
			"max":[
				0.4536755681037903,
				0.45562633872032166,
				1.5158345699310303
			],
			"min":[
				-0.424235999584198,
				-0.4222845733165741,
				0.6377484202384949
			],
			"type":"VEC3"
		},
		{
			"bufferView":26,
			"componentType":5126,
			"count":559,
			"type":"VEC2"
		},
		{
			"bufferView":27,
			"componentType":5126,
			"count":559,
			"type":"VEC3"
		},
		{
			"bufferView":28,
			"componentType":5126,
			"count":66,
			"max":[
				0.5411298871040344,
				0.5109556317329407,
				4.206985950469971
			],
			"min":[
				-0.46715444326400757,
				-0.4720239043235779,
				1.093124508857727
			],
			"type":"VEC3"
		},
		{
			"bufferView":29,
			"componentType":5126,
			"count":66,
			"type":"VEC2"
		},
		{
			"bufferView":30,
			"componentType":5126,
			"count":66,
			"type":"VEC3"
		},
		{
			"bufferView":31,
			"componentType":5123,
			"count":192,
			"type":"SCALAR"
		},
		{
			"bufferView":32,
			"componentType":5126,
			"count":66,
			"max":[
				0.5217271447181702,
				0.5109788179397583,
				-1.041467308998108
			],
			"min":[
				-0.4610897898674011,
				-0.49645093083381653,
				-4.174711227416992
			],
			"type":"VEC3"
		},
		{
			"bufferView":33,
			"componentType":5126,
			"count":66,
			"type":"VEC2"
		},
		{
			"bufferView":34,
			"componentType":5126,
			"count":66,
			"type":"VEC3"
		},
		{
			"bufferView":35,
			"componentType":5126,
			"count":559,
			"max":[
				0.47515517473220825,
				0.46753060817718506,
				-0.6089751124382019
			],
			"min":[
				-0.40183407068252563,
				-0.4103943109512329,
				-1.4861239194869995
			],
			"type":"VEC3"
		},
		{
			"bufferView":36,
			"componentType":5126,
			"count":559,
			"type":"VEC2"
		},
		{
			"bufferView":37,
			"componentType":5126,
			"count":559,
			"type":"VEC3"
		},
		{
			"bufferView":38,
			"componentType":5126,
			"count":509,
			"max":[
				-0.735568642616272,
				0.9565773606300354,
				0.9453767538070679
			],
			"min":[
				-2.6202540397644043,
				-0.9257813096046448,
				-0.9373575448989868
			],
			"type":"VEC3"
		},
		{
			"bufferView":39,
			"componentType":5126,
			"count":509,
			"type":"VEC2"
		},
		{
			"bufferView":40,
			"componentType":5126,
			"count":509,
			"type":"VEC3"
		},
		{
			"bufferView":41,
			"componentType":5123,
			"count":2880,
			"type":"SCALAR"
		}
	],
	"bufferViews":[
		{
			"buffer":0,
			"byteLength":20136,
			"byteOffset":0,
			"target":34962
		},
		{
			"buffer":0,
			"byteLength":13424,
			"byteOffset":20136,
			"target":34962
		},
		{
			"buffer":0,
			"byteLength":20136,
			"byteOffset":33560,
			"target":34962
		},
		{
			"buffer":0,
			"byteLength":16704,
			"byteOffset":53696,
			"target":34963
		},
		{
			"buffer":0,
			"byteLength":6708,
			"byteOffset":70400,
			"target":34962
		},
		{
			"buffer":0,
			"byteLength":4472,
			"byteOffset":77108,
			"target":34962
		},
		{
			"buffer":0,
			"byteLength":6708,
			"byteOffset":81580,
			"target":34962
		},
		{
			"buffer":0,
			"byteLength":5760,
			"byteOffset":88288,
			"target":34963
		},
		{
			"buffer":0,
			"byteLength":6708,
			"byteOffset":94048,
			"target":34962
		},
		{
			"buffer":0,
			"byteLength":4472,
			"byteOffset":100756,
			"target":34962
		},
		{
			"buffer":0,
			"byteLength":6708,
			"byteOffset":105228,
			"target":34962
		},
		{
			"buffer":0,
			"byteLength":6708,
			"byteOffset":111936,
			"target":34962
		},
		{
			"buffer":0,
			"byteLength":4472,
			"byteOffset":118644,
			"target":34962
		},
		{
			"buffer":0,
			"byteLength":6708,
			"byteOffset":123116,
			"target":34962
		},
		{
			"buffer":0,
			"byteLength":5760,
			"byteOffset":129824,
			"target":34963
		},
		{
			"buffer":0,
			"byteLength":792,
			"byteOffset":135584,
			"target":34962
		},
		{
			"buffer":0,
			"byteLength":528,
			"byteOffset":136376,
			"target":34962
		},
		{
			"buffer":0,
			"byteLength":792,
			"byteOffset":136904,
			"target":34962
		},
		{
			"buffer":0,
			"byteLength":384,
			"byteOffset":137696,
			"target":34963
		},
		{
			"buffer":0,
			"byteLength":6708,
			"byteOffset":138080,
			"target":34962
		},
		{
			"buffer":0,
			"byteLength":4472,
			"byteOffset":144788,
			"target":34962
		},
		{
			"buffer":0,
			"byteLength":6708,
			"byteOffset":149260,
			"target":34962
		},
		{
			"buffer":0,
			"byteLength":792,
			"byteOffset":155968,
			"target":34962
		},
		{
			"buffer":0,
			"byteLength":528,
			"byteOffset":156760,
			"target":34962
		},
		{
			"buffer":0,
			"byteLength":792,
			"byteOffset":157288,
			"target":34962
		},
		{
			"buffer":0,
			"byteLength":6708,
			"byteOffset":158080,
			"target":34962
		},
		{
			"buffer":0,
			"byteLength":4472,
			"byteOffset":164788,
			"target":34962
		},
		{
			"buffer":0,
			"byteLength":6708,
			"byteOffset":169260,
			"target":34962
		},
		{
			"buffer":0,
			"byteLength":792,
			"byteOffset":175968,
			"target":34962
		},
		{
			"buffer":0,
			"byteLength":528,
			"byteOffset":176760,
			"target":34962
		},
		{
			"buffer":0,
			"byteLength":792,
			"byteOffset":177288,
			"target":34962
		},
		{
			"buffer":0,
			"byteLength":384,
			"byteOffset":178080,
			"target":34963
		},
		{
			"buffer":0,
			"byteLength":792,
			"byteOffset":178464,
			"target":34962
		},
		{
			"buffer":0,
			"byteLength":528,
			"byteOffset":179256,
			"target":34962
		},
		{
			"buffer":0,
			"byteLength":792,
			"byteOffset":179784,
			"target":34962
		},
		{
			"buffer":0,
			"byteLength":6708,
			"byteOffset":180576,
			"target":34962
		},
		{
			"buffer":0,
			"byteLength":4472,
			"byteOffset":187284,
			"target":34962
		},
		{
			"buffer":0,
			"byteLength":6708,
			"byteOffset":191756,
			"target":34962
		},
		{
			"buffer":0,
			"byteLength":6108,
			"byteOffset":198464,
			"target":34962
		},
		{
			"buffer":0,
			"byteLength":4072,
			"byteOffset":204572,
			"target":34962
		},
		{
			"buffer":0,
			"byteLength":6108,
			"byteOffset":208644,
			"target":34962
		},
		{
			"buffer":0,
			"byteLength":5760,
			"byteOffset":214752,
			"target":34963
		},
		{
			"buffer":0,
			"byteLength":52805,
			"byteOffset":220512
		}
	],
	"samplers":[
		{
			"magFilter":9729,
			"minFilter":9987
		}
	],
	"buffers":[
		{
			"byteLength":273320,
			"uri":"data:application/octet-stream;base64,"
		}
	]
}
