{
	"asset":{
		"generator":"Khronos glTF Blender I/O v3.5.30",
		"version":"2.0"
	},
	"extensionsUsed":[
		"KHR_materials_transmission",
		"KHR_materials_ior"
	],
	"scene":0,
	"scenes":[
		{
			"extras":{
				"skinify":{
					"connect_mesh":0,
					"connect_parents":0,
					"generate_all":0,
					"thickness":0.800000011920929,
					"finger_thickness":0.25,
					"apply_mod":1,
					"parent_armature":1,
					"sub_level":1
				},
				"camera_settings":{},
				"uuid":"4b9dda3c-b783-43d8-9180-a20d4c855c48",
				"assets reported":{},
				"b_settings":1,
				"b_player":0,
				"s_cubemap_path":"",
				"b_renderer":0,
				"s_cubemap_ext":"jpg",
				"b_export":1,
				"export_path":"/Users/erbvi/Desktop/",
				"s_output":"exporting...",
				"s_project_name":"aframe8-prj",
				"b_interactive":0
			},
			"name":"Scene",
			"nodes":[
				0
			]
		}
	],
	"nodes":[
		{
			"mesh":0,
			"name":"Plane.003",
			"scale":[
				0.199266716837883,
				0.2673792839050293,
				0.199266716837883
			]
		}
	],
	"materials":[
		{
			"doubleSided":true,
			"extensions":{
				"KHR_materials_transmission":{
					"transmissionFactor":0.34090909361839294
				},
				"KHR_materials_ior":{
					"ior":14.449999809265137
				}
			},
			"name":"Material.040",
			"pbrMetallicRoughness":{
				"baseColorFactor":[
					0.6534474492073059,
					0.8140406012535095,
					0.35060185194015503,
					1
				],
				"metallicFactor":0,
				"roughnessFactor":0.5
			}
		}
	],
	"meshes":[
		{
			"name":"Plane.005",
			"primitives":[
				{
					"attributes":{
						"POSITION":0,
						"NORMAL":1
					},
					"indices":2,
					"material":0
				}
			]
		}
	],
	"accessors":[
		{
			"bufferView":0,
			"componentType":5126,
			"count":12644,
			"max":[
				5.218274116516113,
				4.858924865722656,
				4.214354515075684
			],
			"min":[
				-5.218273639678955,
				-2.663417339324951,
				-3.9444096088409424
			],
			"type":"VEC3"
		},
		{
			"bufferView":1,
			"componentType":5126,
			"count":12644,
			"type":"VEC3"
		},
		{
			"bufferView":2,
			"componentType":5123,
			"count":20160,
			"type":"SCALAR"
		}
	],
	"bufferViews":[
		{
			"buffer":0,
			"byteLength":151728,
			"byteOffset":0,
			"target":34962
		},
		{
			"buffer":0,
			"byteLength":151728,
			"byteOffset":151728,
			"target":34962
		},
		{
			"buffer":0,
			"byteLength":40320,
			"byteOffset":303456,
			"target":34963
		}
	],
	"buffers":[
		{
			"byteLength":343776,
			"uri":"data:application/octet-stream;base64,"
		}
	]
}
