{
	"asset":{
		"generator":"Khronos glTF Blender I/O v3.5.30",
		"version":"2.0"
	},
	"scene":0,
	"scenes":[
		{
			"extras":{
				"skinify":{
					"connect_mesh":0,
					"connect_parents":0,
					"generate_all":0,
					"thickness":0.800000011920929,
					"finger_thickness":0.25,
					"apply_mod":1,
					"parent_armature":1,
					"sub_level":1
				},
				"camera_settings":{},
				"uuid":"4b9dda3c-b783-43d8-9180-a20d4c855c48",
				"assets reported":{},
				"b_settings":1,
				"b_player":0,
				"s_cubemap_path":"",
				"b_renderer":0,
				"s_cubemap_ext":"jpg",
				"b_export":1,
				"export_path":"/Users/erbvi/Desktop/",
				"s_output":"exporting...",
				"s_project_name":"aframe17-prj",
				"b_interactive":0
			},
			"name":"Scene",
			"nodes":[
				0
			]
		}
	],
	"nodes":[
		{
			"mesh":0,
			"name":"Plane.004",
			"rotation":[
				0,
				-0.9959360361099243,
				0,
				0.09006444364786148
			],
			"scale":[
				0.29301369190216064,
				0.29301369190216064,
				0.29301369190216064
			]
		}
	],
	"meshes":[
		{
			"name":"Plane.004",
			"primitives":[
				{
					"attributes":{
						"POSITION":0,
						"NORMAL":1
					},
					"indices":2
				}
			]
		}
	],
	"accessors":[
		{
			"bufferView":0,
			"componentType":5126,
			"count":3808,
			"max":[
				0.20590756833553314,
				0.23797616362571716,
				0.11492923647165298
			],
			"min":[
				-0.5131767392158508,
				-0.21704232692718506,
				-0.28990408778190613
			],
			"type":"VEC3"
		},
		{
			"bufferView":1,
			"componentType":5126,
			"count":3808,
			"type":"VEC3"
		},
		{
			"bufferView":2,
			"componentType":5123,
			"count":5856,
			"type":"SCALAR"
		}
	],
	"bufferViews":[
		{
			"buffer":0,
			"byteLength":45696,
			"byteOffset":0,
			"target":34962
		},
		{
			"buffer":0,
			"byteLength":45696,
			"byteOffset":45696,
			"target":34962
		},
		{
			"buffer":0,
			"byteLength":11712,
			"byteOffset":91392,
			"target":34963
		}
	],
	"buffers":[
		{
			"byteLength":103104,
			"uri":"data:application/octet-stream;base64,"
		}
	]
}
