{
	"asset":{
		"generator":"Khronos glTF Blender I/O v3.5.30",
		"version":"2.0"
	},
	"extensionsUsed":[
		"KHR_materials_transmission",
		"KHR_materials_ior"
	],
	"scene":0,
	"scenes":[
		{
			"extras":{
				"skinify":{
					"connect_mesh":0,
					"connect_parents":0,
					"generate_all":0,
					"thickness":0.800000011920929,
					"finger_thickness":0.25,
					"apply_mod":1,
					"parent_armature":1,
					"sub_level":1
				},
				"camera_settings":{},
				"uuid":"4b9dda3c-b783-43d8-9180-a20d4c855c48",
				"assets reported":{},
				"b_settings":1,
				"b_player":0,
				"s_cubemap_path":"",
				"b_renderer":0,
				"s_cubemap_ext":"jpg",
				"b_export":1,
				"export_path":"/Users/erbvi/Desktop/",
				"s_output":"exporting...",
				"s_project_name":"aframe14-prj",
				"b_interactive":0
			},
			"name":"Scene",
			"nodes":[
				0
			]
		}
	],
	"nodes":[
		{
			"mesh":0,
			"name":"Plane.005",
			"scale":[
				0.5773542523384094,
				0.774703323841095,
				0.5773542523384094
			]
		}
	],
	"materials":[
		{
			"doubleSided":true,
			"extensions":{
				"KHR_materials_transmission":{
					"transmissionFactor":0.34090909361839294
				},
				"KHR_materials_ior":{
					"ior":14.449999809265137
				}
			},
			"name":"Material.046",
			"pbrMetallicRoughness":{
				"baseColorFactor":[
					0.6534474492073059,
					0.8140406012535095,
					0.35060185194015503,
					1
				],
				"metallicFactor":0,
				"roughnessFactor":0.5
			}
		}
	],
	"meshes":[
		{
			"name":"Plane.006",
			"primitives":[
				{
					"attributes":{
						"POSITION":0,
						"NORMAL":1
					},
					"indices":2,
					"material":0
				}
			]
		}
	],
	"accessors":[
		{
			"bufferView":0,
			"componentType":5126,
			"count":10922,
			"max":[
				4.0792622566223145,
				6.5194902420043945,
				4.360935688018799
			],
			"min":[
				-4.079529285430908,
				-1.002795934677124,
				-3.797828197479248
			],
			"type":"VEC3"
		},
		{
			"bufferView":1,
			"componentType":5126,
			"count":10922,
			"type":"VEC3"
		},
		{
			"bufferView":2,
			"componentType":5123,
			"count":17568,
			"type":"SCALAR"
		}
	],
	"bufferViews":[
		{
			"buffer":0,
			"byteLength":131064,
			"byteOffset":0,
			"target":34962
		},
		{
			"buffer":0,
			"byteLength":131064,
			"byteOffset":131064,
			"target":34962
		},
		{
			"buffer":0,
			"byteLength":35136,
			"byteOffset":262128,
			"target":34963
		}
	],
	"buffers":[
		{
			"byteLength":297264,
			"uri":"data:application/octet-stream;base64,"
		}
	]
}
