{
	"asset":{
		"generator":"Khronos glTF Blender I/O v3.5.30",
		"version":"2.0"
	},
	"scene":0,
	"scenes":[
		{
			"extras":{
				"s_output":"exporting...",
				"b_settings":1,
				"s_cubemap_path":"/env/",
				"b_renderer":0,
				"b_player":0,
				"b_colorManagement":1,
				"b_physicallyCorrectLights":1,
				"b_interactive":0,
				"b_export":1,
				"export_path":"/Users/erbvi/Desktop/"
			},
			"name":"Scene",
			"nodes":[
				0
			]
		}
	],
	"nodes":[
		{
			"mesh":0,
			"name":"Plane.001",
			"rotation":[
				0,
				-1,
				0,
				1.6292068494294654e-07
			],
			"scale":[
				1.9429030418395996,
				1.9429030418395996,
				1.9429030418395996
			]
		}
	],
	"materials":[
		{
			"doubleSided":true,
			"name":"Material.074",
			"pbrMetallicRoughness":{
				"baseColorTexture":{
					"index":0
				},
				"metallicFactor":0,
				"roughnessFactor":0.5
			}
		},
		{
			"doubleSided":true,
			"name":"Material.075",
			"pbrMetallicRoughness":{
				"baseColorFactor":[
					0.800000011920929,
					0.800000011920929,
					0.800000011920929,
					1
				],
				"metallicFactor":0,
				"roughnessFactor":0.5
			}
		}
	],
	"meshes":[
		{
			"name":"Plane.001",
			"primitives":[
				{
					"attributes":{
						"COLOR_0":0,
						"POSITION":1,
						"TEXCOORD_0":2,
						"NORMAL":3
					},
					"indices":4,
					"material":0
				},
				{
					"attributes":{
						"COLOR_0":5,
						"POSITION":6,
						"TEXCOORD_0":7,
						"NORMAL":8
					},
					"indices":9,
					"material":1
				}
			]
		}
	],
	"textures":[
		{
			"sampler":0,
			"source":0
		}
	],
	"images":[
		{
			"bufferView":5,
			"mimeType":"image/png",
			"name":"Untitled"
		}
	],
	"accessors":[
		{
			"bufferView":0,
			"componentType":5126,
			"count":9213,
			"type":"VEC4"
		},
		{
			"bufferView":1,
			"componentType":5126,
			"count":9213,
			"max":[
				1.735263705253601,
				2.4825186729431152,
				1.059077501296997
			],
			"min":[
				-1.3830112218856812,
				-2.942596673965454,
				-1.2453389167785645
			],
			"type":"VEC3"
		},
		{
			"bufferView":2,
			"componentType":5126,
			"count":9213,
			"type":"VEC2"
		},
		{
			"bufferView":3,
			"componentType":5126,
			"count":9213,
			"type":"VEC3"
		},
		{
			"bufferView":4,
			"componentType":5123,
			"count":39168,
			"type":"SCALAR"
		},
		{
			"bufferView":6,
			"componentType":5126,
			"count":2600,
			"type":"VEC4"
		},
		{
			"bufferView":7,
			"componentType":5126,
			"count":2600,
			"max":[
				1.9653514623641968,
				1.0479893684387207,
				0.11125636100769043
			],
			"min":[
				-2.012720823287964,
				-1.1791393756866455,
				-0.9906337857246399
			],
			"type":"VEC3"
		},
		{
			"bufferView":8,
			"componentType":5126,
			"count":2600,
			"type":"VEC2"
		},
		{
			"bufferView":9,
			"componentType":5126,
			"count":2600,
			"type":"VEC3"
		},
		{
			"bufferView":10,
			"componentType":5123,
			"count":14778,
			"type":"SCALAR"
		}
	],
	"bufferViews":[
		{
			"buffer":0,
			"byteLength":147408,
			"byteOffset":0,
			"target":34962
		},
		{
			"buffer":0,
			"byteLength":110556,
			"byteOffset":147408,
			"target":34962
		},
		{
			"buffer":0,
			"byteLength":73704,
			"byteOffset":257964,
			"target":34962
		},
		{
			"buffer":0,
			"byteLength":110556,
			"byteOffset":331668,
			"target":34962
		},
		{
			"buffer":0,
			"byteLength":78336,
			"byteOffset":442224,
			"target":34963
		},
		{
			"buffer":0,
			"byteLength":20566,
			"byteOffset":520560
		},
		{
			"buffer":0,
			"byteLength":41600,
			"byteOffset":541128,
			"target":34962
		},
		{
			"buffer":0,
			"byteLength":31200,
			"byteOffset":582728,
			"target":34962
		},
		{
			"buffer":0,
			"byteLength":20800,
			"byteOffset":613928,
			"target":34962
		},
		{
			"buffer":0,
			"byteLength":31200,
			"byteOffset":634728,
			"target":34962
		},
		{
			"buffer":0,
			"byteLength":29556,
			"byteOffset":665928,
			"target":34963
		}
	],
	"samplers":[
		{
			"magFilter":9729,
			"minFilter":9987
		}
	],
	"buffers":[
		{
			"byteLength":695484,
			"uri":"data:application/octet-stream;base64,"
		}
	]
}
