{
	"asset":{
		"generator":"Khronos glTF Blender I/O v3.5.30",
		"version":"2.0"
	},
	"scene":0,
	"scenes":[
		{
			"extras":{
				"skinify":{
					"connect_mesh":0,
					"connect_parents":0,
					"generate_all":0,
					"thickness":0.800000011920929,
					"finger_thickness":0.25,
					"apply_mod":1,
					"parent_armature":1,
					"sub_level":1
				},
				"camera_settings":{},
				"uuid":"4b9dda3c-b783-43d8-9180-a20d4c855c48",
				"assets reported":{},
				"b_settings":1,
				"b_player":0,
				"s_cubemap_path":"",
				"b_renderer":0,
				"s_cubemap_ext":"jpg",
				"b_export":1,
				"export_path":"/Users/erbvi/Desktop/",
				"s_output":"exporting...",
				"s_project_name":"aframe8-prj",
				"b_interactive":0
			},
			"name":"Scene",
			"nodes":[
				0
			]
		}
	],
	"nodes":[
		{
			"mesh":0,
			"name":"Plane.002",
			"scale":[
				0.4454868733882904,
				0.4454868733882904,
				0.4454868733882904
			]
		}
	],
	"meshes":[
		{
			"name":"Plane.003",
			"primitives":[
				{
					"attributes":{
						"POSITION":0,
						"NORMAL":1
					},
					"indices":2
				}
			]
		}
	],
	"accessors":[
		{
			"bufferView":0,
			"componentType":5126,
			"count":3158,
			"max":[
				0.26687589287757874,
				0.23851324617862701,
				0.14860747754573822
			],
			"min":[
				-0.4285156726837158,
				-0.21813224256038666,
				-0.2925562560558319
			],
			"type":"VEC3"
		},
		{
			"bufferView":1,
			"componentType":5126,
			"count":3158,
			"type":"VEC3"
		},
		{
			"bufferView":2,
			"componentType":5123,
			"count":4872,
			"type":"SCALAR"
		}
	],
	"bufferViews":[
		{
			"buffer":0,
			"byteLength":37896,
			"byteOffset":0,
			"target":34962
		},
		{
			"buffer":0,
			"byteLength":37896,
			"byteOffset":37896,
			"target":34962
		},
		{
			"buffer":0,
			"byteLength":9744,
			"byteOffset":75792,
			"target":34963
		}
	],
	"buffers":[
		{
			"byteLength":85536,
			"uri":"data:application/octet-stream;base64,"
		}
	]
}
