{
	"asset":{
		"generator":"Khronos glTF Blender I/O v3.5.30",
		"version":"2.0"
	},
	"scene":0,
	"scenes":[
		{
			"extras":{
				"b_settings":1,
				"b_renderer":0,
				"b_player":0,
				"b_export":1,
				"export_path":"/Users/erbvi/Desktop/Monsters/",
				"s_output":"exporting...",
				"s_project_name":"aframe-prj7"
			},
			"name":"Scene",
			"nodes":[
				0
			]
		}
	],
	"nodes":[
		{
			"mesh":0,
			"name":"Plane",
			"scale":[
				-58.804786682128906,
				-58.804786682128906,
				-58.804786682128906
			]
		}
	],
	"materials":[
		{
			"doubleSided":true,
			"name":"Material.108",
			"pbrMetallicRoughness":{
				"baseColorFactor":[
					0.9380747675895691,
					0.9533398747444153,
					1,
					1
				],
				"metallicFactor":0,
				"roughnessFactor":0.5
			}
		}
	],
	"meshes":[
		{
			"name":"Plane.001",
			"primitives":[
				{
					"attributes":{
						"POSITION":0,
						"TEXCOORD_0":1,
						"NORMAL":2,
						"TANGENT":3
					},
					"indices":4,
					"material":0
				}
			]
		}
	],
	"accessors":[
		{
			"bufferView":0,
			"componentType":5126,
			"count":12,
			"max":[
				1,
				0.689274251461029,
				0.8000000715255737
			],
			"min":[
				-1,
				-0.6527300477027893,
				-1.2000000476837158
			],
			"type":"VEC3"
		},
		{
			"bufferView":1,
			"componentType":5126,
			"count":12,
			"type":"VEC2"
		},
		{
			"bufferView":2,
			"componentType":5126,
			"count":12,
			"type":"VEC3"
		},
		{
			"bufferView":3,
			"componentType":5126,
			"count":12,
			"type":"VEC4"
		},
		{
			"bufferView":4,
			"componentType":5123,
			"count":24,
			"type":"SCALAR"
		}
	],
	"bufferViews":[
		{
			"buffer":0,
			"byteLength":144,
			"byteOffset":0,
			"target":34962
		},
		{
			"buffer":0,
			"byteLength":96,
			"byteOffset":144,
			"target":34962
		},
		{
			"buffer":0,
			"byteLength":144,
			"byteOffset":240,
			"target":34962
		},
		{
			"buffer":0,
			"byteLength":192,
			"byteOffset":384,
			"target":34962
		},
		{
			"buffer":0,
			"byteLength":48,
			"byteOffset":576,
			"target":34963
		}
	],
	"buffers":[
		{
			"byteLength":624,
			"uri":"data:application/octet-stream;base64,"
		}
	]
}
