{
	"asset":{
		"generator":"Khronos glTF Blender I/O v3.5.30",
		"version":"2.0"
	},
	"scene":0,
	"scenes":[
		{
			"extras":{
				"skinify":{
					"connect_mesh":0,
					"connect_parents":0,
					"generate_all":0,
					"thickness":0.800000011920929,
					"finger_thickness":0.25,
					"apply_mod":1,
					"parent_armature":1,
					"sub_level":1
				},
				"camera_settings":{},
				"uuid":"4b9dda3c-b783-43d8-9180-a20d4c855c48",
				"assets reported":{},
				"b_settings":1,
				"b_player":0,
				"s_cubemap_path":"",
				"b_renderer":0,
				"s_cubemap_ext":"jpg",
				"b_export":1,
				"export_path":"/Users/erbvi/Desktop/",
				"s_output":"exporting...",
				"s_project_name":"aframe17-prj",
				"b_interactive":0
			},
			"name":"Scene",
			"nodes":[
				0
			]
		}
	],
	"nodes":[
		{
			"mesh":0,
			"name":"Plane.003",
			"scale":[
				0.29301369190216064,
				0.29301369190216064,
				0.29301369190216064
			]
		}
	],
	"meshes":[
		{
			"name":"Plane.005",
			"primitives":[
				{
					"attributes":{
						"POSITION":0,
						"NORMAL":1
					},
					"indices":2
				}
			]
		}
	],
	"accessors":[
		{
			"bufferView":0,
			"componentType":5126,
			"count":3266,
			"max":[
				0.1846621334552765,
				0.22982138395309448,
				0.13244333863258362
			],
			"min":[
				-0.5107294321060181,
				-0.22345119714736938,
				-0.3010484576225281
			],
			"type":"VEC3"
		},
		{
			"bufferView":1,
			"componentType":5126,
			"count":3266,
			"type":"VEC3"
		},
		{
			"bufferView":2,
			"componentType":5123,
			"count":5040,
			"type":"SCALAR"
		}
	],
	"bufferViews":[
		{
			"buffer":0,
			"byteLength":39192,
			"byteOffset":0,
			"target":34962
		},
		{
			"buffer":0,
			"byteLength":39192,
			"byteOffset":39192,
			"target":34962
		},
		{
			"buffer":0,
			"byteLength":10080,
			"byteOffset":78384,
			"target":34963
		}
	],
	"buffers":[
		{
			"byteLength":88464,
			"uri":"data:application/octet-stream;base64,"
		}
	]
}
