{
	"asset":{
		"generator":"Khronos glTF Blender I/O v3.5.30",
		"version":"2.0"
	},
	"extensionsUsed":[
		"KHR_materials_specular",
		"KHR_materials_ior"
	],
	"scene":0,
	"scenes":[
		{
			"extras":{
				"skinify":{
					"connect_mesh":0,
					"connect_parents":0,
					"generate_all":0,
					"thickness":0.800000011920929,
					"finger_thickness":0.25,
					"apply_mod":1,
					"parent_armature":1,
					"sub_level":1
				},
				"camera_settings":{},
				"uuid":"4b9dda3c-b783-43d8-9180-a20d4c855c48",
				"assets reported":{},
				"b_settings":1,
				"b_player":0,
				"s_cubemap_path":"",
				"b_renderer":0,
				"s_cubemap_ext":"jpg",
				"b_export":1,
				"export_path":"/Users/erbvi/Desktop/",
				"s_output":"exporting...",
				"s_project_name":"aframe2-prj"
			},
			"name":"Scene",
			"nodes":[
				0
			]
		}
	],
	"nodes":[
		{
			"extras":{
				"ant_landscape":{},
				"jv_properties":{}
			},
			"mesh":0,
			"name":"Plane",
			"scale":[
				2.1710622310638428,
				2.1710622310638428,
				2.1710622310638428
			]
		}
	],
	"materials":[
		{
			"doubleSided":true,
			"extensions":{
				"KHR_materials_specular":{
					"specularColorFactor":[
						2.371357614441398,
						2.371357614441398,
						2.371357614441398
					]
				},
				"KHR_materials_ior":{
					"ior":1.4500000476837158
				}
			},
			"name":"Material.005",
			"pbrMetallicRoughness":{
				"baseColorFactor":[
					0.008691111579537392,
					0.5698668360710144,
					0.9234514236450195,
					1
				],
				"metallicFactor":0,
				"roughnessFactor":0.5
			}
		}
	],
	"meshes":[
		{
			"name":"Plane.001",
			"primitives":[
				{
					"attributes":{
						"POSITION":0,
						"TEXCOORD_0":1,
						"NORMAL":2
					},
					"indices":3,
					"material":0
				}
			]
		}
	],
	"accessors":[
		{
			"bufferView":0,
			"componentType":5126,
			"count":3650,
			"max":[
				2.944326162338257,
				0.32349300384521484,
				1.0277457237243652
			],
			"min":[
				-5.903188228607178,
				-2.1775686740875244,
				-1.0003814697265625
			],
			"type":"VEC3"
		},
		{
			"bufferView":1,
			"componentType":5126,
			"count":3650,
			"type":"VEC2"
		},
		{
			"bufferView":2,
			"componentType":5126,
			"count":3650,
			"type":"VEC3"
		},
		{
			"bufferView":3,
			"componentType":5123,
			"count":7608,
			"type":"SCALAR"
		}
	],
	"bufferViews":[
		{
			"buffer":0,
			"byteLength":43800,
			"byteOffset":0,
			"target":34962
		},
		{
			"buffer":0,
			"byteLength":29200,
			"byteOffset":43800,
			"target":34962
		},
		{
			"buffer":0,
			"byteLength":43800,
			"byteOffset":73000,
			"target":34962
		},
		{
			"buffer":0,
			"byteLength":15216,
			"byteOffset":116800,
			"target":34963
		}
	],
	"buffers":[
		{
			"byteLength":132016,
			"uri":"data:application/octet-stream;base64,"
		}
	]
}
