{
	"asset":{
		"generator":"Khronos glTF Blender I/O v3.5.30",
		"version":"2.0"
	},
	"scene":0,
	"scenes":[
		{
			"extras":{
				"s_output":"exporting...",
				"b_settings":1,
				"s_cubemap_path":"/env/",
				"b_renderer":0,
				"b_player":0,
				"b_colorManagement":1,
				"b_physicallyCorrectLights":1,
				"b_interactive":0,
				"b_export":1,
				"export_path":"/Users/erbvi/Desktop/"
			},
			"name":"Scene",
			"nodes":[
				0
			]
		}
	],
	"nodes":[
		{
			"mesh":0,
			"name":"Sphere.001",
			"rotation":[
				-0.19298774003982544,
				0.8365234136581421,
				-0.16271331906318665,
				0.4863216280937195
			],
			"scale":[
				1.39665949344635,
				1.39665949344635,
				1.3966596126556396
			]
		}
	],
	"materials":[
		{
			"doubleSided":true,
			"name":"Material.042",
			"pbrMetallicRoughness":{
				"baseColorTexture":{
					"index":0
				},
				"metallicFactor":0,
				"roughnessFactor":0
			}
		},
		{
			"doubleSided":true,
			"name":"Material.043",
			"pbrMetallicRoughness":{
				"baseColorFactor":[
					0.004895768128335476,
					0.003555562114343047,
					0.017387639731168747,
					1
				],
				"metallicFactor":0,
				"roughnessFactor":0.17616580426692963
			}
		}
	],
	"meshes":[
		{
			"name":"Sphere.001",
			"primitives":[
				{
					"attributes":{
						"POSITION":0,
						"TEXCOORD_0":1,
						"NORMAL":2,
						"TANGENT":3
					},
					"indices":4,
					"material":0
				},
				{
					"attributes":{
						"POSITION":5,
						"TEXCOORD_0":6,
						"NORMAL":7,
						"TANGENT":8
					},
					"indices":9,
					"material":1
				}
			]
		}
	],
	"textures":[
		{
			"sampler":0,
			"source":0
		}
	],
	"images":[
		{
			"bufferView":5,
			"mimeType":"image/png",
			"name":"Material"
		}
	],
	"accessors":[
		{
			"bufferView":0,
			"componentType":5126,
			"count":596,
			"max":[
				1.4675079584121704,
				1.567903995513916,
				1.2382732629776
			],
			"min":[
				-0.5324907302856445,
				-0.432096004486084,
				-0.7617260813713074
			],
			"type":"VEC3"
		},
		{
			"bufferView":1,
			"componentType":5126,
			"count":596,
			"type":"VEC2"
		},
		{
			"bufferView":2,
			"componentType":5126,
			"count":596,
			"type":"VEC3"
		},
		{
			"bufferView":3,
			"componentType":5126,
			"count":596,
			"type":"VEC4"
		},
		{
			"bufferView":4,
			"componentType":5123,
			"count":2880,
			"type":"SCALAR"
		},
		{
			"bufferView":6,
			"componentType":5126,
			"count":2960,
			"max":[
				3.201788902282715,
				3.3595383167266846,
				3.6889820098876953
			],
			"min":[
				-3.6486968994140625,
				-3.7605342864990234,
				-4.293881893157959
			],
			"type":"VEC3"
		},
		{
			"bufferView":7,
			"componentType":5126,
			"count":2960,
			"type":"VEC2"
		},
		{
			"bufferView":8,
			"componentType":5126,
			"count":2960,
			"type":"VEC3"
		},
		{
			"bufferView":9,
			"componentType":5126,
			"count":2960,
			"type":"VEC4"
		},
		{
			"bufferView":10,
			"componentType":5123,
			"count":4392,
			"type":"SCALAR"
		}
	],
	"bufferViews":[
		{
			"buffer":0,
			"byteLength":7152,
			"byteOffset":0,
			"target":34962
		},
		{
			"buffer":0,
			"byteLength":4768,
			"byteOffset":7152,
			"target":34962
		},
		{
			"buffer":0,
			"byteLength":7152,
			"byteOffset":11920,
			"target":34962
		},
		{
			"buffer":0,
			"byteLength":9536,
			"byteOffset":19072,
			"target":34962
		},
		{
			"buffer":0,
			"byteLength":5760,
			"byteOffset":28608,
			"target":34963
		},
		{
			"buffer":0,
			"byteLength":56146,
			"byteOffset":34368
		},
		{
			"buffer":0,
			"byteLength":35520,
			"byteOffset":90516,
			"target":34962
		},
		{
			"buffer":0,
			"byteLength":23680,
			"byteOffset":126036,
			"target":34962
		},
		{
			"buffer":0,
			"byteLength":35520,
			"byteOffset":149716,
			"target":34962
		},
		{
			"buffer":0,
			"byteLength":47360,
			"byteOffset":185236,
			"target":34962
		},
		{
			"buffer":0,
			"byteLength":8784,
			"byteOffset":232596,
			"target":34963
		}
	],
	"samplers":[
		{
			"magFilter":9729,
			"minFilter":9987
		}
	],
	"buffers":[
		{
			"byteLength":241380,
			"uri":"data:application/octet-stream;base64,"
		}
	]
}
