{
	"asset":{
		"generator":"Khronos glTF Blender I/O v3.5.30",
		"version":"2.0"
	},
	"scene":0,
	"scenes":[
		{
			"extras":{
				"skinify":{
					"connect_mesh":0,
					"connect_parents":0,
					"generate_all":0,
					"thickness":0.800000011920929,
					"finger_thickness":0.25,
					"apply_mod":1,
					"parent_armature":1,
					"sub_level":1
				},
				"camera_settings":{},
				"uuid":"4b9dda3c-b783-43d8-9180-a20d4c855c48",
				"assets reported":{},
				"b_settings":1,
				"b_player":0,
				"s_cubemap_path":"",
				"b_renderer":0,
				"s_cubemap_ext":"jpg",
				"b_export":1,
				"export_path":"/Users/erbvi/Desktop/",
				"s_output":"exporting...",
				"s_project_name":"aframe15-prj",
				"b_interactive":0
			},
			"name":"Scene",
			"nodes":[
				0
			]
		}
	],
	"nodes":[
		{
			"mesh":0,
			"name":"Sphere.003",
			"rotation":[
				0.7162313461303711,
				0,
				0,
				0.697862982749939
			],
			"scale":[
				1.3179891109466553,
				1.3179891109466553,
				1.3179891109466553
			],
			"translation":[
				-9.256081581115723,
				-4.086321830749512,
				0
			]
		}
	],
	"materials":[
		{
			"doubleSided":true,
			"name":"Material.042",
			"pbrMetallicRoughness":{
				"baseColorFactor":[
					0.8000000715255737,
					0.744802713394165,
					0.5395298600196838,
					1
				],
				"metallicFactor":0,
				"roughnessFactor":0.5
			}
		}
	],
	"meshes":[
		{
			"name":"Sphere.003",
			"primitives":[
				{
					"attributes":{
						"POSITION":0,
						"TEXCOORD_0":1,
						"NORMAL":2,
						"TANGENT":3
					},
					"indices":4,
					"material":0
				}
			]
		}
	],
	"accessors":[
		{
			"bufferView":0,
			"componentType":5126,
			"count":625,
			"max":[
				1.0696625709533691,
				0.5941793322563171,
				1.06966233253479
			],
			"min":[
				-1.0696622133255005,
				-0.47582074999809265,
				-1.0696629285812378
			],
			"type":"VEC3"
		},
		{
			"bufferView":1,
			"componentType":5126,
			"count":625,
			"type":"VEC2"
		},
		{
			"bufferView":2,
			"componentType":5126,
			"count":625,
			"type":"VEC3"
		},
		{
			"bufferView":3,
			"componentType":5126,
			"count":625,
			"type":"VEC4"
		},
		{
			"bufferView":4,
			"componentType":5123,
			"count":3072,
			"type":"SCALAR"
		}
	],
	"bufferViews":[
		{
			"buffer":0,
			"byteLength":7500,
			"byteOffset":0,
			"target":34962
		},
		{
			"buffer":0,
			"byteLength":5000,
			"byteOffset":7500,
			"target":34962
		},
		{
			"buffer":0,
			"byteLength":7500,
			"byteOffset":12500,
			"target":34962
		},
		{
			"buffer":0,
			"byteLength":10000,
			"byteOffset":20000,
			"target":34962
		},
		{
			"buffer":0,
			"byteLength":6144,
			"byteOffset":30000,
			"target":34963
		}
	],
	"buffers":[
		{
			"byteLength":36144,
			"uri":"data:application/octet-stream;base64,"
		}
	]
}
