{
	"asset":{
		"generator":"Khronos glTF Blender I/O v3.5.30",
		"version":"2.0"
	},
	"scene":0,
	"scenes":[
		{
			"extras":{
				"s_output":"exporting...",
				"b_settings":1,
				"s_cubemap_path":"/env/",
				"b_renderer":0,
				"b_player":0,
				"b_colorManagement":1,
				"b_physicallyCorrectLights":1,
				"b_interactive":0,
				"b_export":1,
				"export_path":"/Users/erbvi/Desktop/"
			},
			"name":"Scene",
			"nodes":[
				0
			]
		}
	],
	"nodes":[
		{
			"mesh":0,
			"name":"Sphere.007",
			"rotation":[
				-0.06271936744451523,
				0.9976298809051514,
				-0.027513781562447548,
				0.006636785808950663
			],
			"scale":[
				0.262106716632843,
				0.8249045610427856,
				0.26210665702819824
			]
		}
	],
	"materials":[
		{
			"doubleSided":true,
			"name":"Material.076",
			"pbrMetallicRoughness":{
				"baseColorFactor":[
					0.006739022675901651,
					0.0001622487761778757,
					0,
					1
				],
				"metallicFactor":0,
				"roughnessFactor":0
			}
		},
		{
			"doubleSided":true,
			"name":"Material.077",
			"pbrMetallicRoughness":{
				"baseColorFactor":[
					0.006739022675901651,
					0.0001622646232135594,
					0,
					1
				],
				"metallicFactor":0,
				"roughnessFactor":0
			}
		},
		{
			"doubleSided":true,
			"name":"material",
			"pbrMetallicRoughness":{
				"metallicFactor":0
			}
		},
		{
			"doubleSided":true,
			"name":"Material.078",
			"pbrMetallicRoughness":{
				"baseColorFactor":[
					0.8000000715255737,
					0.7820908427238464,
					0.7297753691673279,
					1
				],
				"metallicFactor":0,
				"roughnessFactor":0.5
			}
		},
		{
			"doubleSided":true,
			"name":"Material.079",
			"pbrMetallicRoughness":{
				"baseColorFactor":[
					0.800000011920929,
					0.800000011920929,
					0.800000011920929,
					1
				],
				"metallicFactor":0,
				"roughnessFactor":0.5
			}
		}
	],
	"meshes":[
		{
			"name":"Sphere.009",
			"primitives":[
				{
					"attributes":{
						"POSITION":0,
						"TEXCOORD_0":1,
						"NORMAL":2,
						"TANGENT":3
					},
					"indices":4,
					"material":0
				},
				{
					"attributes":{
						"POSITION":5,
						"TEXCOORD_0":6,
						"NORMAL":7,
						"TANGENT":8
					},
					"indices":9,
					"material":1
				},
				{
					"attributes":{
						"POSITION":10,
						"TEXCOORD_0":11,
						"NORMAL":12,
						"TANGENT":13
					},
					"indices":14,
					"material":2
				},
				{
					"attributes":{
						"POSITION":15,
						"TEXCOORD_0":16,
						"NORMAL":17,
						"TANGENT":18
					},
					"indices":19,
					"material":3
				},
				{
					"attributes":{
						"POSITION":20,
						"TEXCOORD_0":21,
						"NORMAL":22,
						"TANGENT":23
					},
					"indices":24,
					"material":4
				}
			]
		}
	],
	"accessors":[
		{
			"bufferView":0,
			"componentType":5126,
			"count":559,
			"max":[
				-4.487987518310547,
				5.839792251586914,
				7.317874908447266
			],
			"min":[
				-6.487986087799072,
				3.839792251586914,
				5.317875385284424
			],
			"type":"VEC3"
		},
		{
			"bufferView":1,
			"componentType":5126,
			"count":559,
			"type":"VEC2"
		},
		{
			"bufferView":2,
			"componentType":5126,
			"count":559,
			"type":"VEC3"
		},
		{
			"bufferView":3,
			"componentType":5126,
			"count":559,
			"type":"VEC4"
		},
		{
			"bufferView":4,
			"componentType":5123,
			"count":2880,
			"type":"SCALAR"
		},
		{
			"bufferView":5,
			"componentType":5126,
			"count":2062,
			"max":[
				3.360842227935791,
				6.170077323913574,
				6.9636101722717285
			],
			"min":[
				0.05264425277709961,
				4.222478866577148,
				4.980680465698242
			],
			"type":"VEC3"
		},
		{
			"bufferView":6,
			"componentType":5126,
			"count":2062,
			"type":"VEC2"
		},
		{
			"bufferView":7,
			"componentType":5126,
			"count":2062,
			"type":"VEC3"
		},
		{
			"bufferView":8,
			"componentType":5126,
			"count":2062,
			"type":"VEC4"
		},
		{
			"bufferView":9,
			"componentType":5123,
			"count":12360,
			"type":"SCALAR"
		},
		{
			"bufferView":10,
			"componentType":5126,
			"count":12646,
			"max":[
				25.501096725463867,
				6.941061019897461,
				7.223231792449951
			],
			"min":[
				-23.44717788696289,
				-9.920675277709961,
				-8.809244155883789
			],
			"type":"VEC3"
		},
		{
			"bufferView":11,
			"componentType":5126,
			"count":12646,
			"type":"VEC2"
		},
		{
			"bufferView":12,
			"componentType":5126,
			"count":12646,
			"type":"VEC3"
		},
		{
			"bufferView":13,
			"componentType":5126,
			"count":12646,
			"type":"VEC4"
		},
		{
			"bufferView":14,
			"componentType":5123,
			"count":75864,
			"type":"SCALAR"
		},
		{
			"bufferView":15,
			"componentType":5126,
			"count":336,
			"max":[
				0.26111459732055664,
				3.8223624229431152,
				5.165014266967773
			],
			"min":[
				-2.835463523864746,
				3.115612506866455,
				4.356482982635498
			],
			"type":"VEC3"
		},
		{
			"bufferView":16,
			"componentType":5126,
			"count":336,
			"type":"VEC2"
		},
		{
			"bufferView":17,
			"componentType":5126,
			"count":336,
			"type":"VEC3"
		},
		{
			"bufferView":18,
			"componentType":5126,
			"count":336,
			"type":"VEC4"
		},
		{
			"bufferView":19,
			"componentType":5123,
			"count":336,
			"type":"SCALAR"
		},
		{
			"bufferView":20,
			"componentType":5126,
			"count":294,
			"max":[
				0.25486326217651367,
				3.71559476852417,
				5.170131206512451
			],
			"min":[
				-3.2868893146514893,
				3.1338603496551514,
				4.324498176574707
			],
			"type":"VEC3"
		},
		{
			"bufferView":21,
			"componentType":5126,
			"count":294,
			"type":"VEC2"
		},
		{
			"bufferView":22,
			"componentType":5126,
			"count":294,
			"type":"VEC3"
		},
		{
			"bufferView":23,
			"componentType":5126,
			"count":294,
			"type":"VEC4"
		},
		{
			"bufferView":24,
			"componentType":5123,
			"count":294,
			"type":"SCALAR"
		}
	],
	"bufferViews":[
		{
			"buffer":0,
			"byteLength":6708,
			"byteOffset":0,
			"target":34962
		},
		{
			"buffer":0,
			"byteLength":4472,
			"byteOffset":6708,
			"target":34962
		},
		{
			"buffer":0,
			"byteLength":6708,
			"byteOffset":11180,
			"target":34962
		},
		{
			"buffer":0,
			"byteLength":8944,
			"byteOffset":17888,
			"target":34962
		},
		{
			"buffer":0,
			"byteLength":5760,
			"byteOffset":26832,
			"target":34963
		},
		{
			"buffer":0,
			"byteLength":24744,
			"byteOffset":32592,
			"target":34962
		},
		{
			"buffer":0,
			"byteLength":16496,
			"byteOffset":57336,
			"target":34962
		},
		{
			"buffer":0,
			"byteLength":24744,
			"byteOffset":73832,
			"target":34962
		},
		{
			"buffer":0,
			"byteLength":32992,
			"byteOffset":98576,
			"target":34962
		},
		{
			"buffer":0,
			"byteLength":24720,
			"byteOffset":131568,
			"target":34963
		},
		{
			"buffer":0,
			"byteLength":151752,
			"byteOffset":156288,
			"target":34962
		},
		{
			"buffer":0,
			"byteLength":101168,
			"byteOffset":308040,
			"target":34962
		},
		{
			"buffer":0,
			"byteLength":151752,
			"byteOffset":409208,
			"target":34962
		},
		{
			"buffer":0,
			"byteLength":202336,
			"byteOffset":560960,
			"target":34962
		},
		{
			"buffer":0,
			"byteLength":151728,
			"byteOffset":763296,
			"target":34963
		},
		{
			"buffer":0,
			"byteLength":4032,
			"byteOffset":915024,
			"target":34962
		},
		{
			"buffer":0,
			"byteLength":2688,
			"byteOffset":919056,
			"target":34962
		},
		{
			"buffer":0,
			"byteLength":4032,
			"byteOffset":921744,
			"target":34962
		},
		{
			"buffer":0,
			"byteLength":5376,
			"byteOffset":925776,
			"target":34962
		},
		{
			"buffer":0,
			"byteLength":672,
			"byteOffset":931152,
			"target":34963
		},
		{
			"buffer":0,
			"byteLength":3528,
			"byteOffset":931824,
			"target":34962
		},
		{
			"buffer":0,
			"byteLength":2352,
			"byteOffset":935352,
			"target":34962
		},
		{
			"buffer":0,
			"byteLength":3528,
			"byteOffset":937704,
			"target":34962
		},
		{
			"buffer":0,
			"byteLength":4704,
			"byteOffset":941232,
			"target":34962
		},
		{
			"buffer":0,
			"byteLength":588,
			"byteOffset":945936,
			"target":34963
		}
	],
	"buffers":[
		{
			"byteLength":946524,
			"uri":"data:application/octet-stream;base64,"
		}
	]
}
