{
	"asset":{
		"generator":"Khronos glTF Blender I/O v3.5.30",
		"version":"2.0"
	},
	"extensionsUsed":[
		"KHR_materials_sheen"
	],
	"scene":0,
	"scenes":[
		{
			"extras":{
				"skinify":{
					"connect_mesh":0,
					"connect_parents":0,
					"generate_all":0,
					"thickness":0.800000011920929,
					"finger_thickness":0.25,
					"apply_mod":1,
					"parent_armature":1,
					"sub_level":1
				},
				"camera_settings":{},
				"uuid":"4b9dda3c-b783-43d8-9180-a20d4c855c48",
				"assets reported":{},
				"b_settings":1,
				"b_player":0,
				"s_cubemap_path":"",
				"b_renderer":0,
				"s_cubemap_ext":"jpg",
				"b_export":1,
				"export_path":"/Users/erbvi/Desktop/",
				"s_output":"exporting...",
				"s_project_name":"aframe8-prj",
				"b_interactive":0
			},
			"name":"Scene",
			"nodes":[
				0
			]
		}
	],
	"nodes":[
		{
			"mesh":0,
			"name":"Suzanne",
			"scale":[
				1.093355417251587,
				1.093355417251587,
				1.093355417251587
			]
		}
	],
	"materials":[
		{
			"doubleSided":true,
			"extensions":{
				"KHR_materials_sheen":{
					"sheenColorFactor":[
						1,
						1,
						1
					],
					"sheenColorTexture":{
						"index":0
					},
					"sheenRoughnessFactor":1
				}
			},
			"name":"Material.022",
			"pbrMetallicRoughness":{}
		}
	],
	"meshes":[
		{
			"name":"Suzanne",
			"primitives":[
				{
					"attributes":{
						"POSITION":0,
						"TEXCOORD_0":1,
						"NORMAL":2,
						"TANGENT":3
					},
					"indices":4,
					"material":0
				}
			]
		}
	],
	"textures":[
		{
			"sampler":0,
			"source":0
		}
	],
	"images":[
		{
			"bufferView":5,
			"mimeType":"image/png",
			"name":"Untitled2"
		}
	],
	"accessors":[
		{
			"bufferView":0,
			"componentType":5126,
			"count":504,
			"max":[
				1.0894629955291748,
				0.6177161335945129,
				0.5492890477180481
			],
			"min":[
				-1.0894629955291748,
				-0.4165230989456177,
				-0.9927340745925903
			],
			"type":"VEC3"
		},
		{
			"bufferView":1,
			"componentType":5126,
			"count":504,
			"type":"VEC2"
		},
		{
			"bufferView":2,
			"componentType":5126,
			"count":504,
			"type":"VEC3"
		},
		{
			"bufferView":3,
			"componentType":5126,
			"count":504,
			"type":"VEC4"
		},
		{
			"bufferView":4,
			"componentType":5123,
			"count":2394,
			"type":"SCALAR"
		}
	],
	"bufferViews":[
		{
			"buffer":0,
			"byteLength":6048,
			"byteOffset":0,
			"target":34962
		},
		{
			"buffer":0,
			"byteLength":4032,
			"byteOffset":6048,
			"target":34962
		},
		{
			"buffer":0,
			"byteLength":6048,
			"byteOffset":10080,
			"target":34962
		},
		{
			"buffer":0,
			"byteLength":8064,
			"byteOffset":16128,
			"target":34962
		},
		{
			"buffer":0,
			"byteLength":4788,
			"byteOffset":24192,
			"target":34963
		},
		{
			"buffer":0,
			"byteLength":40588,
			"byteOffset":28980
		}
	],
	"samplers":[
		{
			"magFilter":9729,
			"minFilter":9987
		}
	],
	"buffers":[
		{
			"byteLength":69568,
			"uri":"data:application/octet-stream;base64,"
		}
	]
}
